<svg xmlns="http://www.w3.org/2000/svg" width="1280" height="1280" viewBox="0 0 1600 408" xmlns:v="https://vecta.io/nano"><style><![CDATA[.B{fill:#00b462}.C{fill:#00b45e}.D{fill:#00b563}.E{fill:#00b55f}.F{fill:#00b261}.G{fill:#00b260}.H{fill:#00b75f}.I{fill:#00b65f}.J{fill:#f9dc3d}.K{fill:#00b35e}.L{fill:#00b562}.M{fill:#00b160}.N{fill:#00b45f}.O{fill:#00b560}.P{fill:#f3d841}.Q{fill:#00b362}.R{fill:#00b460}.S{fill:#00b760}]]></style><path d="M192 50.9l2.62-.008c2.38.133 2.38.133 5.38 1.13l1 2 5.06 2.62 2.79 1.35 2.15 1.02v2l8 2v4l3.75.25c3.1.383 4.13.661 6.69 2.62 1.56 2.12 1.56 2.12 2.56 5.12l2.06.312c3.53.825 6.62 2.24 9.94 3.69 1.32.373 2.65.73 4 1v3l3.19.125c5.03 1.15 5.99 2.68 8.81 6.88v2h7l1 3 7 1v3l5 1v2l7 1v3h8l1 3c2.02.733 2.02.733 4 1v3l3.44.812 3.56 1.19 1 3 6 1v3h5l1 4h7v4h8l1 3 3 1 1 3c3.51 1.23 3.51 1.23 7 2v3h4l-1 3c-.079 1.79-.098 3.59-.082 5.39l.021 3.39.039 3.73.029 3.92.093 10.7.092 11.2.181 21.3.261 31.1.038 4.63.019 2.29.132 15.4.154 19.6.051 6.12c.149 15.8-.501 31.4-1.03 47.2h-317c-.591-6.5-1.13-12.5-1.13-18.9l-.005-2.19.002-7.13-.005-5.16v-13.9l-.001-14.6.005-24.5-.002-28.3-.003-24.3-.002-14.5.005-13.6-.001-5.01.006-6.82.001-3.86c.126-3.07.126-3.07 1.13-6.07h3v-3l8-1v-4l3-1 1-3 8-1 1-3h7l1-4h3v-3l7-1 1-3h8v-5h4l1-4h7v-3l8-1 1-3 3-1 1-2 6-2 1-2 2.44-.375 2.56-.625.812-1.94c1.19-2.06 1.19-2.06 2.98-2.66l4.31-.895c2.33-.617 3.39-1.66 4.9-3.5h2v-2l8-1v-3l3.31-.812c3.42-1.1 4.46-1.61 6.69-4.19h2v-3h6v-2h2v-3l2.88-.312c3.42-.373 3.42-.373 5.12-3.69h4v-3l8-1v-3c2.95-.983 4.93-1.13 8-1.12z" fill="#f8da3e"/><path d="M71 136l1 2h4l1-2 1 4h4v4h-5v7l1.94.875c2.06 1.12 2.06 1.12 3.06 3.12l4 2v4h2c1.01-3.05 1.01-3.05 0-6h2v-2h8c-.312 1.94-.312 1.94-1 4l-3 1h4l2 6h3v2h4v5h2v6l4-4c.071 4.29.07 7.86-1 12-.492 3.44-.685 6.58 0 10 1.55 1.78 3.07 2.74 5.11 3.91 2.77 1.59 4.78 3.72 6.89 6.09v2h2l-1 7h2c-1 3-1 3-3.75 4.56-3.97 2.43-5.33 6.06-7.17 10.2-1.08 2.24-1.08 2.24-3.08 4.24-.534 1.87-.534 1.87-.75 3.94l-.297 2.09c-.121 2.3-.121 2.3 2.05 4.97l.375 3.56.625 3.44c1.88 1.32 1.88 1.32 4 2 2 3 2 3 2.44 6.56l.562 3.44 3 2v3l9-1v-3c18-3.36 18-3.36 26 1v2l2.69.25c4.08.923 5.61 1.52 8.31 4.75.675 2.88 1.06 5.69 1.35 8.64.866 4.46 2.69 8.29 4.65 12.4l1.85.06 8.34.315 2.91.094 2.82.117 2.59.095c2.76.352 4.97 1.19 7.5 2.32v2l3.88-1.81 2.18-1.02c2.25-1.16 2.25-1.16 3.95-4.17l.734-5.8c1.11-9.14 1.11-9.14 4.27-12l3-1.19 2.09-.836c6.97-2.47 13.6-2.47 20.9-2.16v4l-2 2 10 1v4l13-1v3c-3.29.8-4.71 1.1-8 0l-2 1-3-1v3l6.88-.938 3.87-.527c3.13-.349 3.13-.349 5.26-1.54v2l2.5-1.44c4.03-1.8 7.13-2.19 11.5-2.56l-1-3h2v-6l2.88-.812c3.38-.937 3.38-.937 5.12-4.19 2 2 2 2 2 6 .241 3.6.241 3.6 1 7l3 2c.687 3.12.687 3.12 1 6h9l1 5h3l1 2 4-2 1 4 1-3h2l.184 1.86.254 2.45.246 2.43c.269 2.42.269 2.42 1.32 5.26h15l2-5c1.86 6.29 2.18 14-.375 20.1-1.62 2.87-1.62 2.87-3.62 4.88l-6.02.648c-2.58.459-4.1 1.56-5.98 3.35l-2-1c-2.04-.071-4.08-.084-6.12-.062l-3.32.027-2.55.035-1 2-5-2v3h-269v-183l8 4-2 1v2l4-1c.723-4.48.723-4.48 1-9h3v-2h5l1-3 3 2h4l-3 1v3l4-1v-3l3-1v3l6-1 1-4-2-1 1-2z" fill="#f8da3f"/><path d="M1279 126l2.85-.015 9.41-.027 6.55-.017 13.8-.02 17.5-.058 13.6-.025 6.46-.024c22.8-.13 41.5 2.61 59.9 17.3l1.94 1.45c3.33 2.55 4.65 4.66 6.06 8.55l3 1 .355 2.25c.64 2.73 1.47 4.4 2.96 6.75 8.39 14.8 10 34.6 5.94 51-2.12 6.35-5.2 11.7-9.25 17l-1.59 2.09c-6.73 8.25-15.3 13.1-24.8 17.6-2.71 1.26-2.71 1.26-5.57 3.26l1.09 1.44c8.02 10.7 16 21.3 23.1 32.7 2.44 3.79 5.05 7.46 7.67 11.1l11.8 17 1.23 1.84c2.16 3.26 4.21 6.55 6.21 9.91l-23.5.494-8 .185-11.5.2-3.6.141c-8.14.005-8.14.005-11.6-2.99-1.78-2.27-3.27-4.54-4.71-7.03l-2.01-2.69-26-36.8-14.8-21.2-1.47-2.11c-2.09-2.97-4.14-5.56-6.72-8.14l-1 80h-48c-1.13-11.3-1.13-11.3-1.13-16.6l-.009-3.65.006-3.91-.005-4.19v-11.3l-.001-11.8.005-19.9-.002-23-.003-19.7-.002-11.8.005-11.1-.004-6 .009-3.59.001-3.13c.126-2.44.126-2.44 1.13-4.44h-17c-1.13-6.75-1.13-6.75-.12-10.4l.658-2.48.735-2.61.737-2.72 1.56-5.67 2.38-8.72 1.51-5.51.723-2.64c2.26-8.12 3.81-7.36 11.8-7.37zm47 45.2c-1.6 2.83-2.25 4.86-2.24 8.11l-.009 2.42.022 2.58.001 2.67.023 5.57.02 8.55.018 5.4.003 2.6c-.349 3.87-.349 3.87 1.16 7.11a202.19 202.19 0 0 0 8.31.238l2.55.025 5.38.032 8.15.105 5.23.025 2.43.053c6.96-.026 13-1.93 18.3-6.55l1.62-2.05 1.69-2.07c3.46-4.75 2.7-10.1 2.31-15.8-1.1-5.44-2.91-10.1-7-14-6.91-4.28-13.1-5.15-21.1-5.1l-2.33.004-7.34.031-4.99.014-12.2.049z" fill="#00b05c"/><path d="M631 126h53l-1 3-.089 5.41.017 3.4.034 3.74.024 3.93.081 10.7.083 11.2.147 18.8.162 21.7.155 20.9.064 8.89.1 12.4.022 3.72.034 3.43.024 2.97c.15 3 .593 5.87 1.14 8.82h2c1.08 1.61 1.08 1.61 2.25 3.75 3.78 6.2 8.84 8.82 15.7 10.7 11.5 2.03 23.6 1.48 33.4-5.15 4.66-3.85 7.15-7.9 7.99-13.9.563-7.26.765-14.4.73-21.7l-.004-3.54-.018-7.55-.024-12-.051-25.4-.053-27.4-.034-13.8-.01-7.22-.016-3.28v-3.07l-.007-2.63c.154-3.63.67-7.24 1.12-10.8h50l-1 3c-.083 1.92-.105 3.84-.093 5.76l.013 3.64.03 4 .019 4.21.048 9.09.06 14.4.015 4.94.008 2.5.148 33.5.089 22.6.057 12 .042 11.3.052 6.04c-.055 16.7-5.05 33.7-16.8 46-18.6 17-41.9 24.9-67 24.2-25.8-1.79-47.9-9.04-65.7-28.4-4.92-6.18-9.34-13.8-9.97-21.8h-2c-3.47-12.1-2.15-26.2-2.13-38.8l-.003-5.91.005-12.3-.004-15.8v-12.2l-.002-5.82.007-8.09-.006-2.43c.021-5.51.021-5.51 1.14-7.74h-16c0-7.88 0-7.88.886-11.1l.587-2.2.644-2.31.658-2.43 1.39-5.05 2.11-7.72 1.35-4.92.632-2.32c.991-3.56 2.09-6.59 3.75-9.91z" fill="#00b15d"/><path d="M1117 126l2.23.011h2.34l7.68.016 5.31.004 14 .025 14.3.02 28 .049.437 2.3c.688 3.3 1.73 6.39 2.81 9.58l1.36 4.04.702 2.07c4.91 14.5 9.75 29 13.9 43.7.87 2.71 1.89 5.36 2.9 8.02 1.55 4.2 2.94 8.46 4.34 12.7l.895 2.7 1.77 5.33 3.84 11.5 1.97 5.92 1.04 3.11 5.96 17.9 2.14 6.39 9.08 27.8 1.98 6.15 1.77 5.5 4.35 13.1 1.34 3.93.695 2.01c.981 2.9 1.68 5.22 1.68 8.3l-21.6.275-7.36.103-10.6.111-3.33.078c-2.8.001-5.37-.031-8.12-.566-2.67-2.92-3.33-5.36-3.56-9.25l-.438-3.75-2-1c-.562-1.75-.562-1.75-1-4l-.625-2.62c-.375-2.38-.375-2.38.625-4.38h-2v-6h-69l-2 10-7 21h-53c1.97-7.23 4.01-14.3 6.44-21.3l.98-2.87 3.14-9.17 2.2-6.44 8.85-25.7 16.7-49.9 1.96-5.97 3.7-11.3 1.13-3.46c1.72-5.28 3.4-10.5 4.87-15.9h2v-2h-16c-1.02-5.12-.719-7.21.547-12.1l.521-2.06 1.68-6.49 1.09-4.3c5.9-23.1 5.9-23.1 12.3-23.1zm44.9 55.1c-3.02 6.07-5.01 12.2-6.8 18.7-3.25 11.8-6.74 23.5-10.9 35-2.65 7.22-5.25 14.6-5.25 22.3h44l-1-8-.438-4.44-.562-3.56-2-1c-.562-2.55-.562-2.55-1-5.75-.557-4.03-1.2-7.57-3-11.2l-2-1c-.297-1.95-.584-3.9-.781-5.86-.279-2.74-.744-5.43-1.22-8.14h-2l-.332-2.31c-.89-5.8-2.01-11.2-4-16.7-.878-2.62-1.31-5.25-1.66-7.98h-1zm17 57l1 2zm4 13l1 2zm15 55l1 2zm5 15l1 2z" class="Q"/><path d="M1459 126l3.01.003 3.45-.004 3.81.011h3.99l10.9.013 11.3.008 21.5.021 24.5.022 50.3.05v2l-2 1-1 10-9 32h-68l-1 33 73 1c-1.31 7.83-2.68 15-4.94 22.6l-6.06 21.4h-61v34h81c-1.92 15.3-6.97 30.1-11 45h-119c-1.5-5.26-2.25-8.18-2.25-13.3l-.013-3.72.017-4.02-.006-4.28.013-11.6.007-12.1.023-20.3.02-23.5.013-22.6.006-9.63.017-11.3.004-4.16.012-5.67.005-3.21c.129-2.49.129-2.49 1.13-4.49h-18c.609-4.26 1.16-8.03 2.23-12.1l.734-2.82.782-2.94.803-3.05 5.26-19 .626-2.16c1.76-5.92 1.76-5.92 4.79-6.09z" fill="#00b05c"/><path d="M434 126h49l1 6 1.49 5.53.885 3.13.939 3.28 1.92 6.8.932 3.29 2.9 10.7c5.1 19.4 5.1 19.4 10.9 38.7 9.88 30.8 9.88 30.8 12.7 46.4.417 2.28.417 2.28 1.33 5.27l3 1 .927-3.45 16.8-59.9c4.1-13.6 7.91-27.2 11.5-41 4.75-18.1 4.75-18.1 7.75-25.6h55v2l-2 1c-.616 2.89-.959 5.79-1.34 8.73-.75 3.72-2.15 6.8-3.66 10.3-.948 2.97-1.75 5.99-2.56 9-2.59 9.3-5.46 18.5-8.44 27.7l-.66 2.04-8.3 25.1c-1.71 5.12-3.27 10.3-4.79 15.5-2.41 8.19-5.08 16.3-7.81 24.4-4.85 14.4-9.36 28.9-13.8 43.4l-10.6 33-21.7.207-10.1.094-11.6.089-3.66.063-3.4.001-2.99.027c-2.49-.481-2.49-.481-4.29-2.35-1.35-2.4-1.78-4.42-2.2-7.13l-1-3-2-6-1.12-3.06c-.875-2.94-.875-2.94.125-4.94h-2l-1-4.25-.562-2.39c-.438-2.36-.438-2.36-.438-6.36l-2-1c-.731-1.98-1.39-3.98-2-6l-1-3 1-2h-2l-1.94-6.19-1.09-3.48c-.973-3.33-.973-3.33-1.48-6.13-.334-2.39-.334-2.39-2.5-4.2-2.07-5.48-3.31-11.2-4.54-17-.791-3.46-1.79-6.77-3.46-9.91-1.07-2.26-1.58-4.3-2.07-6.75-.474-2.36-.861-4.22-1.94-6.38l1-2h-2c-1.25-2.99-2.22-5.87-3-9-2.54-8.69-2.54-8.69-5.62-17.2-1.76-4.48-2.52-9.09-3.38-13.8l-20-1c-.887-5.32-1.06-6.97.293-11.8l.906-3.28.989-3.44.981-3.51 2.83-9.99 1.32-4.75c2.49-8.87 2.49-8.87 3.68-11.2zm31 117l1 2zm3 9l1 2zm1 3l1 2zm4 12l1 2z" class="K"/><path d="M985 122l3.36-.062c10.7-.05 20.1 2.33 30 6.31l3-6c5.19.636 9.64 2.24 14.5 4.16l2.4.937 7.52 2.96 5.12 2.01 12.5 4.93c0 6.05-3.96 12.1-6.58 17.5l-1.02 2.11-2.13 4.4-3.2 6.62c-3.82 7.9-7.76 15.7-12.1 23.4l-1.58-1.21c-18.1-13.8-35.9-21.4-59-18.3-14.9 3-27.4 10.9-36.1 23.4-9.62 15.8-11.3 33.3-7.94 51.2l.633 1.94 2 1c.633 2.07.633 2.07 1.12 4.56l.508 2.5.367 1.93h2a128.65 128.65 0 0 1 4 5.06c8.5 10.6 20.6 17.6 34 19.9 19.4 1.73 37.2-1.44 52.6-14.1 1.33-1.21 2.63-2.46 3.9-3.74l1.55-1.15c3 1 3 1 4.21 2.83l1.18 2.41 1.34 2.71 1.41 2.93 1.45 2.97 4.42 9.15 2.72 5.62 2.46 5.13 1.17 2.43c2.64 5.58 2.64 5.58 2.64 7.82a133.36 133.36 0 0 1-7.12 5.19l-2.2 1.49c-19.2 12.8-42.4 20.1-65.7 18.3l-1.95-.145c-20.1-1.58-38-6.99-55-17.9l-1.71-1.08c-13.5-8.66-28.3-22.8-32.3-38.9l-2-1c-1-2.18-1-2.18-2-4.88-1.14-3.06-2.17-5.38-4-8.12-.414-2.26-.414-2.26-.625-4.69l-.227-2.45-.148-1.86h-1c-5.66-30.8.37-62.1 18-88 16.3-22.3 40-36.6 67.1-41.6 5.55-.616 11-.662 16.6-.688zm54.3 147l1 3zm6 12l1 3zm1 3l1 2zm1 2l1 3zm3 6l1 2zm3 8l2 3v-3h-2zm3 5l1 3z" fill="#00b05d"/><path d="M180 135l3.65.032 3.95.019 4.14.051 4.16.027 10.2.098c1.29 3.03 2.26 5.77 2.68 9.03l.322 2.21.594 4.52c.791 5.23 2.06 7.89 6.41 11.2 3.01 1.6 3.01 1.6 6.19 2.75l3.17 1.23 2.64 1.02 2 1c2.55-.225 5.04-.514 7.56-.875l2.12-.277c3.46-.224 3.46-.224 6.32-1.85 3.25-.438 3.25-.438 7 0 3.29 3.15 5.06 5.59 6 10l3 2c1.06 2.38 1.06 2.38 2 5l1.19 2c1.08 2.66.515 4.26-.188 7v3l-5 3-1 3c-2.95 1.67-5.78 2.93-9 4l.5 2.09c.733 4.26.518 8.44.438 12.8.057 2.9.236 5.38 1.06 8.16l5 2c1.71 1.96 3.38 3.96 5 6l3 2c.512 2.38.512 2.38.688 5.12l.199 2.76.113 2.12-3 2c-1.2 2.55-1.2 2.55-2 5h-2l-.402 1.93-.535 2.5-.527 2.5c-.535 2.07-.535 2.07-1.54 3.07a53.56 53.56 0 0 1-12.2-.5c-3.51-.468-6.9-.706-10.4-.812l-3.32-.113c-3.71.528-4.5 1.74-6.99 4.43-2.8 1.27-2.8 1.27-5.75 2.25l-2.98 1.02-2.27.734-.516 3.47-.734 4.59-.332 2.28c-.877 5.33-2.35 9.18-5.42 13.7-2.62 1-2.62 1-5 1l-2-1c-1.56-.093-3.12-.132-4.68-.141l-2.81-.059-5.88-.055c-2.63-.069-5.06-.19-7.63-.746-2.04-2.23-2.04-2.23-3-5l-1.14-2.43c-.969-2.9-1.29-5.6-1.61-8.63-.739-4.94-.739-4.94-4.12-8.62-2.42-1.02-4.58-1.75-7.12-2.31l-1-2c-5.9-1.94-10.9-2.16-17-1.62l-2.35.172-5.65.453v3l2 1c-2.81.312-2.81.312-6 0-1.62-2.25-1.62-2.25-3-5l-1.82-1.72c-2.78-2.91-4.58-6.01-6.5-9.53l-1.13-1.91c-2.76-5.05-2.73-8.23-1.56-13.8l5-1v-4c5.63-3 5.63-3 9-3 2.37-13 2.37-13-1-25-2.02-1.41-2.02-1.41-4.38-2.5-6.75-3.62-6.75-3.62-8.62-6.5-.726-3.33-1.18-6.59-1-10l2-2c.648-2.57.648-2.57 1-5l3-1 .938-2.5 1.06-2.5c2.12-.812 2.12-.812 4-1l.438-1.94c.562-2.06.562-2.06 1.56-3.06 5.73.61 11.4 1.83 17 3v2l9-1 1-3c3.06-1.19 3.06-1.19 6-2v-3l7-1 .551-2.49c5.03-22.3 5.03-22.3 10.3-22.7z" fill="#00984e"/><path d="M233 75l1.88.812c4.3 1.64 8.71 2.9 13.1 4.19v3l3.19.125c5.03 1.15 5.99 2.68 8.81 6.88v2h7l1 3 7 1v3l5 1v2l7 1v3h8l1 3c2.02.733 2.02.733 4 1v3l3.44.812 3.56 1.19 1 3 6 1v3h5l1 4h7v4h8l1 3 3 1 1 3c3.51 1.23 3.51 1.23 7 2v3h4l-1 3c-.079 1.79-.098 3.59-.082 5.39l.021 3.39.039 3.73.029 3.92.093 10.7.092 11.2.181 21.3.261 31.1.038 4.63.019 2.29.113 13.3.226 36.5.003 2.31c-.007 7.51-.249 15-.532 22.5l-.5 13.8h-47v-3l2.12.625c2.91.592 2.91.592 5.69-.562 3.99-1.33 7-1.2 11.2-1.06h3l2-2 3.94-.312c2.13-.16 2.13-.16 4.06-.688 3.74-4.59 4.12-8.93 4.06-14.7l-.027-3.57-.035-2.74-2 3-7.38-.375-2.12-.094c-5.28-.305-5.28-.305-7.51-2.53-.195-2.38-.195-2.38-.125-5.12l.055-2.76.07-2.12h-2l-1 5-3-4-3 4v-6h-3l-1-5h-9l-.25-2.88-.75-3.12-2-.938-2-1.06c-.688-3.31-.688-3.31-1-7l-1-5-1.25 1.38c-1.75 1.62-1.75 1.62-3.88 2.5-2.14.991-2.14.991-2.56 3.56l-.312 2.56-1 3c-2.14.914-2.14.914-4.81 1.62l-2.64.727-2.54.648-2.2.586c-1.8.414-1.8.414-3.8.414l-7.12.5-3.88.281-2.99.219v-3c5.62-1.12 5.62-1.12 9 0l4-2h-13v-4h-11l3-4v-3h5l1-2 3.69.812c3.63.456 4.06.377 7.19-1.94 1.98-2.67 3.11-4.74 4.12-7.88l1.12-2.44c1.03-3.01.938-5.39.875-8.56l.562-3.44c.743-6.05-.246-11.3-3.04-16.7-2.95-3.62-7.27-5.18-11.5-6.87-.283-3.71-.459-7.3 0-11 2.44-2.06 2.44-2.06 5-3l1-2 2.38-.312c2.87-.439 2.87-.439 4.31-3.25l1.31-2.44h2c1.39-4.58.373-7.5-1-12-.55-2.71-.814-5.22-1-8l2-3 2 3 3-13 2 2 1-1c1.33-.362 2.66-.697 4-1l-1-2 2.44.063c2.5.234 2.5.234 3.56-1.06 1.51-.391 3.03-.74 4.56-1.06l2.5-.535 1.93-.402-3-3c2.96-1.48 5.74-1.06 9-1l-1-3c-2.5-1.22-2.5-1.22-5-2l1-9h2v9h2l1-10-3-1v-2c-2.88.882-2.88.882-5 2v-2l-3-1h2l-2-3h-2l-1 3h-10l1-3 5-1c-1.07-1.3-1.07-1.3-3.56-1.06l-2.44.063-1-8h-7l-1 2c-3-2-3-2-3.51-4.16l-.176-2.46-.199-2.48-.113-1.9-4 1c-.625-2.81-.625-2.81-1-6l2-3-3 1 1-4-4-2 2-3h2v-2l-2.19.375c-2.81-.375-2.81-.375-5.31-3.12l-1.24-1.65c-1.81-2.3-3.85-3.96-6.26-5.6h-3c-1.34-.306-2.68-.635-4-1v-4h2v-2l-1.88-.375c-2.12-.625-2.12-.625-4.12-2.62v-2z" fill="#f8db3c"/><path d="M71 136l1 2h4l1-2 1 4h4v4h-5v7l1.94.875c2.06 1.12 2.06 1.12 3.06 3.12l4 2v4h2c1.01-3.05 1.01-3.05 0-6h2v-2h8c-.312 1.94-.312 1.94-1 4l-3 1h4l2 6h3v2h4v5h2v6l4-4c.071 4.29.07 7.86-1 12-.492 3.44-.685 6.58 0 10 1.55 1.78 3.07 2.74 5.11 3.91 2.77 1.59 4.78 3.72 6.89 6.09v2h2l-1 7h2c-1 3-1 3-3.75 4.56-3.97 2.43-5.33 6.06-7.17 10.2-1.08 2.24-1.08 2.24-3.08 4.24-.534 1.87-.534 1.87-.75 3.94l-.297 2.09c-.121 2.3-.121 2.3 2.05 4.97l.375 3.56.625 3.44c1.88 1.32 1.88 1.32 4 2 2 3 2 3 2.44 6.56l.562 3.44 3 2v3l2.12-.578c3.38-.494 5.71-.015 9.01.828l3.13.766c2.71.973 3.95 1.78 5.74 3.98-2 2-2 2-4.16 2.2l-2.46-.07-2.48-.055-1.9-.07v4l5-1v2l-8 2v-2h-2l.562 1.88c.438 2.12.438 2.12-.562 4.12-4.78 3.09-9.33 4.44-15 5-3.34 1.11-4.64 2.47-7 5v-2l-4 1v-2l-13-1c-1-5-1-5 0-7l-4-1v-2l-19 2v2h-4v2l2 1 1 2c-3.75 1.12-3.75 1.12-6 0v-3h-2l-1 3h-2v-3h-3l.562 2.25c.43 2.7.289 4.2-.562 6.75l-6 1-1-4c-2 .579-2 .579-4 2-1.14 2.75-2 5.01-2 8l-2 1c-1.31 5.34-1.32 10.9-1.56 16.4l-.131 2.81-.307 6.82h-1v-183l8 4-2 1v2l4-1c.723-4.48.723-4.48 1-9h3v-2h5l1-3 3 2h4l-3 1v3l4-1v-3l3-1v3l6-1 1-4-2-1 1-2z" fill="#f8dc3e"/><path d="M1359 127l5.74.101c7.18.234 13.4 1.5 20.2 3.83a45.14 45.14 0 0 0 6.89 1.74c8.47 2.04 17 8.87 22.9 15.2 1.31 2.87 1.31 2.87 2 5l3 1 .355 2.25c.64 2.73 1.47 4.4 2.96 6.75 8.35 14.7 10.2 34.9 5.83 51.2-1.55 4.48-3.15 8.12-6.14 11.8l-1-4h-2l-1-2-3.81 1.31-2.14.738c-2.97 1.38-4.59 3.04-6.04 5.95-4.09 1.73-5.59 2.1-10 1v9l-5.62 2.06-3.16 1.16c-3.48.843-5.76.602-9.21-.223l-2 4-1-3-2 5-1-4-2 1c-1.71-.087-3.42-.241-5.12-.438l-2.76-.309-2.12-.254v7l3 1v2h-3v2l-2 1-1 2-3-1c-1.67-.039-3.33-.045-5 0l1-4h4l1-2v2h4l-1-2-3-1v-2h4v-6l-3-1v-2h-12v3c-5.09.79-8.91.948-14 0l-3 1-3-2-1 1-2.38-.125c-2.68-.136-2.68-.136-4.44 1.62l-1.19 1.5-3-2 .562-1.75c.478-2.46.195-3.89-.562-6.25h-5l2-1v-2h3v-9l-4-1v-2h3v-2h3v3h2l2-7h2l.875 2.94c.767 3.17.767 3.17 3.12 4.06l1-2c2.71-.414 2.71-.414 6.38-.625l1.99-.119c5.48-.29 11-.25 16.4-.193 12 .36 12 .36 22.6-4.44 6.34-6.49 6.88-11.6 6.78-20.6-.412-5.89-1.82-10.3-5.53-14.9-6.94-5.49-13.2-6.28-21.8-6.22l-2.33.004-7.34.031-4.99.014-12.2.049c-1.05 3.16-1.31 5.87-1.56 9.19l-.254 3.29-.184 2.52h-2c-1.02-4.63-.838-8.34 0-13l-2.25.562c-2.7.43-4.2.289-6.75-.562l.625 2.31c.375 2.69.375 2.69-1.62 5.69-3.62.188-3.62.188-7 0v-2h2l-2-17h-2c-1.16-3.48-.708-5.46 0-9l-2.38.188-2.62-.188c-2-3-2-3-2-6l-4-1-1-6h-9l-1-3-2-1 1-2h-6l-2-4 12-1v-2l75.3-.859z" class="M"/><path d="M1189 178c2.81-.25 2.81-.25 6 0 3.18 3.12 3.45 5.91 3.69 10.2l.199 3.27.113 2.48h2c1.28 1.78 2.48 3.63 3.62 5.5l1.91 3.09 1.46 2.41c-1.19-7.23-2.63-14.1-5-21 3.43 1.39 4.7 2.65 6.25 6l1.02 2.12c.734 1.88.734 1.88.734 3.88l3 2c.936 2.01.936 2.01 1.72 4.47l.887 2.73.895 2.86.895 2.78 1.77 5.53 3.84 11.6 1.97 5.92 1.04 3.11 5.96 17.9 2.14 6.39 9.08 27.8 1.98 6.15 1.77 5.5 4.35 13.1 1.34 3.93.695 2.01c.981 2.9 1.68 5.22 1.68 8.3l-21.6.275-7.36.103-10.6.111-3.33.078c-2.8.001-5.37-.031-8.12-.566-2.67-2.92-3.33-5.36-3.56-9.25l-.438-3.75-2-1c-.562-1.75-.562-1.75-1-4l-.625-2.62c-.375-2.38-.375-2.38.625-4.38h-2v-6h-69l-2 10a109.38 109.38 0 0 1-2.12 6.12l-1.07 2.82-.805 2.05-3-1-3 1v2c-5.95 3.04-11.4 3.65-18 4l-1-3-7 1v-2l8-1-.07-2.12c-.115-6.03.327-11.1 2.07-16.9l-2-1 2-4 1 5h6v-2h2v-2h4v2h-2v3l4-2c.144-7.96.277-16.1-1-24l-2-1 2-7h2v-6l-2-1 2-8h2l1 6h4l-1 5 3-1c1.1-5.57.749-9.92-.438-15.4l-.447-2.22-1.12-5.35h-3v-2l-2-1 3-8h3v-2h3v5l3-2c.414-1.93.414-1.93.293-4.13l-.029-2.44-.076-2.55-.041-2.57-.146-6.3 2-1c.658-3.03.658-3.03 1-6h5l-2 1v3l5-1v-4l-2-1h2v-6l6 1v8l2-1-.188-2.38.188-2.62 3-2-2-1 1.44-1.19c1.91-2.22 2.18-3.95 2.56-6.81h3l-1 7 2 1c-3.28 12.2-6.62 24.4-10.8 36.4l-.852 2.52-.82 2.32-.706 2.01c-.993 2.03-2.21 3.28-3.87 4.78v-2h-5l-2 5-4-2-.062 4.88-.035 2.74c-.065 2.4-.065 2.4 1.1 4.38 2.02.652 2.02.652 4 1v-4c1.5-1.75 1.5-1.75 3-3 1 1 1 1 1.19 3.81-.183 3.12-.726 4.52-2.19 7.19l1.75.069 18.1.73 6.74.271 9.69.395 3.04.117 2.85.121 2.5.101c2.52.207 4.92.655 7.39 1.2v2h2l1 6h6v-6h5v-6h-2v-2l13 1v-4h-5v-7h2c-.55-4.59-1.51-8.64-3-13v-3l-1.81-.625c-3.09-1.94-3.77-4.04-5.19-7.38-.73-3.65-.73-3.65-1.19-7.38l-.48-3.77-.332-2.85h-2v-2l-4-1v-7h2l-.656-2.74-.844-3.57-.844-3.55c-.656-3.14-.656-3.14-.656-6.14h-2v-7zm9 128l1 2zm5 15l1 2z" class="F"/><path d="M757 128l16.1-.055 5.49-.02 7.88-.022 2.49-.016c5.79-.001 5.79-.001 8.02 1.11l.207 55.9.095 26 .075 22.7.047 12 .029 11.3.045 6.06c-.074 16.7-5.05 33.7-16.8 46-4.87 4.48-10.2 8.32-15.7 12.1-.841-3.1-1.09-5.78-1-9l-1 2h-9l1-3-3.81-.625-2.14-.352c-2.36-.219-2.36-.219-5.04 1.98-2.26.414-2.26.414-4.69.625l-2.45.227-1.86.148 2 4-15 1-1-5-2.01.438-2.68.562-2.64.562c-3.95.645-6.87.707-10.7-.562-1.35-.043-2.71-.041-4.06 0-3.94 0-3.94 0-5.94-1v-2l-3-1v-2h-3c-2.76-4.14-2.77-8.09-3.34-13-.676-3.1-1.06-4.27-3.66-6.03h-3v-2l-3 1 1 4-3-1c-2.03-7.59-1.99-14.2-1-22l2.38-.375c2.77-.416 2.77-.416 4.62-2.62l1 4v-4l3 1 1 7 5 1 .312 1.94.688 2.06 3 1 1 2c9.76 6.37 19.6 7.57 31 6 3.15-.824 5.97-1.79 8.93-3.12 2.07-.875 2.07-.875 5.07-.875v9l2.19-1.44c2.71-1.5 4.77-2.13 7.81-2.56l.375-3.38c.625-3.62.625-3.62 2.62-5.62.707-1.65 1.38-3.32 2-5h4c1.32-7.34 2.16-14.5 2-22l3-1 .184-3.18.254-4.14.119-2.09c.193-3.07.467-5.67 1.44-8.6.15-2.06.248-4.13.316-6.2l.127-3.66.119-3.83.131-3.86.307-9.45h2v-5h-2l-.184-3.14-.254-4.11-.119-2.07c-.211-3.34-.552-6.46-1.44-9.68v-5l-1-1-.438-8.81c-.295-6.79-.876-13.4-2.16-20-.402-2.15-.402-2.15-.402-4.15l2-1c.658-3.03.658-3.03 1-6l-2.88.562c-3.12.438-3.12.438-5.12-.562v-3h-2l1-3 2.38.063c2.61.124 2.61.124 4.62-1.06h4l-7-1v-1z" class="B"/><path d="M576 130l4.99-.082 7.19-.091 2.25-.069c2.1.009 2.1.009 5.62.592 2.59 3.13 3.43 6.02 4 10l8-1c-.651 5.91-2.17 11.3-3.94 17l-.918 2.98-17.1 52.8c-1.71 5.12-3.27 10.3-4.79 15.5-2.41 8.19-5.08 16.3-7.81 24.4-4.94 14.6-9.52 29.4-14.1 44.2l-.814 2.65-1.5 4.9-1.38 4.43a173.89 173.89 0 0 0-1.39 4.75l-.725 2.48-.627 2.25c-.949 1.75-.949 1.75-3.05 2.5l-1.9.25c-.043-1.67-.041-3.33 0-5l1-1c.173-3.2-.09-5.93-1-9h-8v-10l2-1v-4l-4-1-1-7h-5l-.148 1.94c-.456 5.27-1.21 10-2.85 15.1h2v2h8l-1 5h2l-.062 2.44c-.234 2.5-.234 2.5 1.06 3.56.25 2.94.25 2.94 0 6-4.72 3.15-9.74 3.21-15.3 2.69-2.5-.639-4.44-1.45-6.69-2.69l-3-1v2h2v3h-10l1-3c-.394-2.64-.394-2.64-1-5h5l-2-4 4.81-1 2.71-.562c2.48-.438 2.48-.438 5.48-.438v-2l2-1-.375-4.38-.211-2.46c-.243-2.37-.243-2.37-2.41-4.16-.238-2.02-.238-2.02-.312-4.38-.332-3.23-.547-4.43-2.5-7.12-4.88-2.3-9.85-2.33-15.2-2.5l-1-4 3.38-.875c3.63-.817 3.63-.817 5.62-3.12 1.32-.699 2.65-1.37 4-2l2-1c1.88.246 3.76.569 5.62.938l3.04.59 2.34.473v-2c-3.38-.845-5.67-1.11-9 0l-2-5c1.29-1.38 2.63-2.71 4-4h2l1-8h2v-2l7-1v-13h-2l.438-4.38.246-2.46c.316-2.16.316-2.16 1.32-4.16l1-4 7-1 .5-3.81.281-2.14c.291-2.71.212-5.38.156-8.11.063-2.94.063-2.94 1.06-4.94h2v-2l4-1 .375-2.62c.625-3.38.625-3.38 1.56-6.12 1.21-3.69 1.91-7.36 2.6-11.2.465-2.07.465-2.07 1.46-3.07.049-1.54.036-3.08 0-4.62-.025-4.78.035-9.54.25-14.3l.141-3.78c.699-3.77 1.63-4.96 4.61-7.29l2-1c.652-2.02.652-2.02 1-4l-4-2 1-1-3-2v-4c4.7-2.35 11.7-1.31 16.9-1.35z" class="G"/><path d="M339 142l3 1-2 3 3 1v2h2l-1-3c1-1 1-1 3.56-1.06l2.44.063.391 52.2.182 24.2.158 21.1.084 11.2.213 38.8.003 2.31c-.005 7.5-.247 15-.53 22.5l-.145 4.06-.355 9.69h-15c0-3 0-3 1.56-4.69 3.24-1.75 5.81-1.52 9.44-1.31l-1-2.38c-.976-2.56-1-3.96-1-6.62h2c-.251-7.43-.655-14.7-5-21l-3-1c-.75-1.94-.75-1.94-1-4l1-2-1-3c-2.43-1.19-4.28-2-7-2l-1-3h3v-2h-2v-2l-4 1 2 3h-5l-1-2-2 3h2l-1 3h-5v-2h-2v-3h-2v-2h-5v-5h-2l-1-4 3-1-3-1 .5-2.25c.583-3.2.993-5.76-.5-8.75l1-3h3l-.219-2.28c-.78-8.93-.885-17.8-.781-26.7h2v-15h-2l-.062-8.62-.025-2.45c-.018-4.44.275-8.54 1.09-12.9.039-1.4.045-2.79 0-4.19 0-3.81 0-3.81 1-6.81l3-1v-4h2v-3h3l1-2h1v-2h-2v-3h-3v-8h9l1 2h-3v3h2v2l14 1v-9h2v-7z" fill="#f8dd3e"/><path d="M1382 139c6.75 1.62 6.75 1.62 9 5 .125 3.19.125 3.19 0 6h2v4l3 1v2h4l1 7h2v3h3v2l3 1c.688 2.06.688 2.06 1 4h-2c-.597 2.76-1 5.16-1 8v4l6 1v2h2c1.45 2.9 1.37 4.77 1 8-1.41 2.58-2.78 3.93-5 6-2.81.375-2.81.375-5 0v4h-2l-1 6h3v13l2 1c-3.09 2.27-4.42 3.05-8.31 2.69l-2.69-.688v9l-5.62 2.06-3.16 1.16c-3.48.843-5.76.602-9.21-.223l-2 4-1-3-2 5-1-4-2 1c-1.71-.087-3.42-.241-5.12-.438l-2.76-.309-2.12-.254v7l3 1v2h-3v2l-2 1-1 2-3-1c-1.67-.039-3.33-.045-5 0l1-4h4l1-2v2h4l-1-2-3-1v-2h4v-6l-3-1v-2h-12v3c-5.09.79-8.91.948-14 0l-3 1-3-2-1 1-2.38-.125c-2.68-.136-2.68-.136-4.44 1.62l-1.19 1.5-3-2 .562-1.75c.478-2.46.195-3.89-.562-6.25h-5l2-1v-2h3v-9l-4-1v-2h3v-2h3v3h2l2-7h2l.875 2.94c.767 3.17.767 3.17 3.12 4.06l1-2c2.71-.414 2.71-.414 6.38-.625l1.99-.119c5.48-.29 11-.25 16.4-.193 12 .36 12 .36 22.6-4.44 6.34-6.49 6.88-11.6 6.78-20.6-.412-5.89-1.82-10.3-5.53-14.9-6.94-5.49-13.2-6.28-21.8-6.22l-2.33.004-7.34.031-4.99.014-12.2.049c-1.05 3.16-1.31 5.87-1.56 9.19l-.254 3.29-.184 2.52h-2c-1.02-4.63-.838-8.34 0-13l-2.38.625-2.62.375-2-2c1.75-4.88 1.75-4.88 4-6l3.31.25c3.83.17 3.83.17 5.93-2.75 3.03-2.75 4.5-3.04 8.53-2.94l2.04.127 2.1.068 5.09.244 1-3v3h4l1-3v3l1.67-.465c4.06-.933 8.19-1.15 12.3-1.54l-16-2 2-4v3h13l1-3 3 1 1-8 12-1v-7z" class="B"/><path d="M786 132l2.56.25 2 3 3 2a72.25 72.25 0 0 1 .625 7.94c.141 5.61.141 5.61 1.38 11.1.15 2.22.242 4.45.305 6.68l.061 2.06.177 6.81.062 2.39.69 55 .061 10.9.062 13.5.035 5.03c.195 18.5-3.56 36.8-16.8 50.6-4.87 4.48-10.2 8.32-15.7 12.1-.841-3.1-1.09-5.78-1-9l-1 2h-9l1-7h-5l1-6 7-1v2h2l2-15h6l-4 1v4l5-1c1.37-5.33 1.03-10.6.873-16.1a51.18 51.18 0 0 1 1.55-13.5c3.84-16.1 5.01-32.2 4.62-48.7-.095-4.6.196-9.03.723-13.6.282-2.6.334-5.17.296-7.79l-.027-2.54-.035-1.84h-2c-.72-11.1-1.32-21.9 0-33l-3-1v-11l5-2 1.62-1.62 1.38-1.38h3l-3-2 3-2c1-1 1-1 3.44-1.25z" class="G"/><path d="M1199 155c3.99 7.36 6.17 15.6 8.56 23.6l.92 3.04 4.52 15.4-3-1c-1-2.19-1-2.19-2-5-1.68-4.26-1.68-4.26-5-7l2 3.06c2.18 3.75 2.17 6.6 2 10.9l2 3c.125 2.69.125 2.69 0 5-3.28-3.1-5.93-5.97-8-10v-2h-2c-1.24-4.56-2-8.28-2-13-2.57-2.57-4.48-2.54-8-3v7h2l1.5 5.19.844 2.92c.623 2.75.779 5.09.656 7.89h-2v7l4 1v2h2c1.1 3.59 1.98 6.83 2.44 10.6.605 3.69 1.63 6.24 3.56 9.44l3 2c2.57 5.2 3.37 10.3 3 16h-2v7h5v4l-4.81.063-2.71.035c-2.48-.098-2.48-.098-5.48-1.1v2h2v6h-5v6h-6l-1-6h-2v-2l-1.88-.069-19.4-.73-7.23-.271-10.4-.395-3.28-.117-3.03-.121-2.68-.101c-2.14-.196-2.14-.196-4.14-1.2l1-10c-2.22 3.7-2.22 3.7-2 7-4.75-1.88-4.75-1.88-7-3-.125-7.62-.125-7.62 1-11 2.83-1.99 5.52-3.66 9-4 1.35.63 2.69 1.29 4 2l-.938 4.75-.527 2.67c-.458 2.2-.989 4.39-1.54 6.58h44c-2.18-9.93-2.18-9.93-5.32-19-1.08-3.1-1.56-6.3-2.15-9.52-.503-2.29-1.2-4.28-2.1-6.44-1.84-4.54-2.15-9.14-2.44-14h-2l-.551-2.31c-1.37-5.65-2.84-11.2-4.8-16.7-.739-2.32-1.21-4.64-1.65-7.04l-.77 2.59-1.04 3.35-1.02 3.34-1.17 2.72-3 1 1-7h-3l.125 2.31c-.125 2.69-.125 2.69-2.12 5.69l2 2-4 1v5l-3 1-1.12-6.81-.633-3.83c-.242-3.36-.242-3.36 1.76-6.36v4l4-2v-9c2 1 2 1 3 3l.562-2.81c1.44-3.19 1.44-3.19 4.56-5.06 4.01-1.44 7.66-1.35 11.9-1.12v6h2l-.5-2.38c-.5-2.62-.5-2.62-.5-4.62l-5-2 1-2c3.38.25 3.38.25 7 1 1.44 2.06 1.44 2.06 2 4l2-8h2v3h3v-9h5v-2h2l1-3 1 3 3 1v2c1.03 2.3 2.25 4.4 3.56 6.56 1.44 2.44 1.44 2.44 2.44 5.44h2l-2-10h-2c-1.12-5.62-1.12-5.62 0-9zm-20 83l1 2zm4 13l1 2z" class="C"/><path d="M186 183l2.58.01 2.7.025 2.72.014 6.66.049v2h2v2l2.12.25c6.86 1.79 11.3 6.66 15 12.5 2.83 5.2 3.53 9.44 3.41 15.3l.047 2.31c-.039 5.68-1.47 8.88-4.55 13.6l-1 3h-2l-.312 1.81c-.793 2.52-1.6 3.58-3.69 5.19h-3v2c-11.3 5.11-21.3 5.18-33.2 1.2-3.49-1.49-5.49-3.22-7.82-6.2l-2.56-2.19c-5.84-6.74-7-14-6.7-22.7.522-6.22 1.34-12.1 5.26-17.1h2l.312-1.94.688-2.06 3-1 1.25-1.5c2.64-2.26 5.37-2.18 8.75-2.5v-3c2.35-1.17 3.74-1.12 6.35-1.1z" fill="#f8da3f"/><path d="M1460 127l2.9.025 3.32.021 3.67.039 3.84.029 10.5.093 10.9.092 20.7.181 23.6.203 48.5.424v2h-2l-1 4h-2l.473 1.9.59 2.48.598 2.46c.34 2.16.34 2.16-.66 4.16h-2l-1 6h-1v-6l-5 3-1-2-.551 2.34-.762 3.04-.738 3.02c-.949 2.6-.949 2.6-3.95 4.6l-4-1-6 1 4 2v-2l3 1c-1.63 1.97-2.49 2.92-5.06 3.33l-2.38-.078-2.65-.074c-4.19-.253-8.37-.624-12.5-1.05l-2.37-.121-1 1c-1.96.1-3.93.131-5.9.133l-3.64.004-3.84-.012-3.81.012-3.65-.004-3.36-.003c-2.8-.129-2.8-.129-5.8-1.13l-2 4-2-1c2.81-4.22 2.81-4.22 5-6 2.8-.499 5.12-.236 8 0l2-1-11-1-2 4h-10v-2l3-1 1-3-4 1v-2l3-1 1-5h5v-6l-2.47.494c-4.02.576-7.94.631-12 .604l-2.4-.004-7.52-.031-5.12-.014-12.5-.049v-4c-1.87-1.93-1.87-1.93-3.5-3.25-2.02-2.35-2.65-4.8-3.5-7.75 1-1 1-1 3.15-1.11z" class="G"/><path d="M929 247c2.79 2.64 5.06 5.1 7.19 8.31L938 258h2a128.65 128.65 0 0 1 4 5.06c8.5 10.6 20.6 17.6 34 19.9 19.4 1.73 37.2-1.44 52.6-14.1 1.33-1.21 2.63-2.46 3.9-3.74l1.55-1.15c4.44 1.48 5.08 4.48 7.12 8.52l1.5 3.04 1.52 2.96c2.81 5.63 4.5 10.2 4.85 16.5l.562 4 .438 3-2.31 1.12c-3.21 2.24-4.19 4.32-5.69 7.88l-2-1c-.633-2.07-.633-2.07-1.12-4.56l-.508-2.5-.367-1.93-5-1 3-2-1-3-2-1 3-1-1-3-8 2-1 5h-2v2c-4.53 1.75-8.28 2.25-13.1 2.19l-3.63-.019c-2.61-.135-4.76-.397-7.24-1.17v3h-5v3h2v6h-8v-4h-6v-2h-3v2l-5 1v4c-3.68 1.18-7.16 1.14-11 1-1-1-1-1-1.06-4.06l.063-2.94h-5l-1-4h-3v-2h-6l-1-3-3-1c-1.68-1.24-1.68-1.24-3-3-.293-2.48-.293-2.48-.188-5.19l.082-2.73.105-2.08h2l1-4-2-1-1 1c-1.66.364-3.33.7-5 1h2v2h-4l-1 2h-1l-1 5 2 1-3 1v-2l-2.88 1.44-5.12 2.56v-2l-2-1 4-1v-4l.562-2.12c.666-1.95.666-1.95-.562-3.88 6.62-.125 6.62-.125 10 1v-2l-5-1v-2h-2l1-2 6 2v-3l-2.31-.312c-2.86-.731-3.84-1.46-5.69-3.69h3l2 2 3-1c-.578-4.77-2.46-8-5-12l-2-1 .063-2.38c.124-2.61.124-2.61-1.06-4.62l1-3zm110 22l1 3zm6 12l1 3zm1 3l1 2zm1 2l1 3z" class="Q"/><path d="M1117 126l2.23.011h2.34l7.68.016 5.31.004 14 .025 14.3.02 28 .049v2l-2.66-.007-24.9-.045-12.8-.024-12.3-.019-4.7-.011-6.59-.008-3.79-.007a40.87 40.87 0 0 0-8.3 1.12l2 4 2-1c1.12 3.75 1.12 3.75 0 6h2l.617 1.95c1.25 2.36 1.25 2.36 4.2 2.66l3.3.141 3.32.172 2.55.078v-3h2l-.062 3.31c-.123 3.63-.123 3.63 1.06 6.69l7 1v5h-7l-1 9h-5c-1.92 4.98-2.55 9.73-3 15h-3l-1 8c-5.75.125-5.75.125-8-1v5l3 1c.202 6.36-.372 11.9-2 18h-6l.289 2.96.336 3.86.352 3.83c.023 3.36.023 3.36-1.98 6.36h-3v5l-4 1v2l2 1h-2l.562 3.12c.413 3.65.184 6.31-.562 9.88-.105 2.21-.105 2.21 1 5h-3l1 6-4 1v4h-4l.035 2.34.027 3.04.035 3.02c-.098 2.6-.098 2.6-1.1 4.6l-3 1v2h-3l.289 1.87c.755 5.77 1.46 11.8-1.29 17.1a126.96 126.96 0 0 1-7 3c-1.4 3.45-1.4 3.45-2 7l-2 3h-2l1 3c-.438 2.19-.438 2.19-1 4h-2v7h-7c1.89-7.21 4.01-14.3 6.44-21.3l.98-2.87 3.14-9.17 2.2-6.44 8.85-25.7 16.7-49.9 1.96-5.97 3.7-11.3 1.13-3.46c1.72-5.28 3.4-10.5 4.87-15.9h2v-2h-16c-1.02-5.12-.719-7.21.547-12.1l.521-2.06 1.68-6.49 1.09-4.3c5.9-23.1 5.9-23.1 12.3-23.1z" fill="#00a657"/><path d="M1142 275v2l5-2v2l2.88-1c5.22-1.49 11.4-2.21 16.4.016l1.7.984v2l3.38.438c3.62.562 3.62.562 5.62 1.56 2.34-.282 4.68-.613 7-1l-2-4h6v2h7v2h-3v3c3.05 1.01 3.05 1.01 6 0l1-5 11-1v2h2v-2h2v5h7v2h2l1 7h3c4.59 19.8 4.59 19.8 4 30l9-1-2-1 1-3c1.88-.812 1.88-.812 4-1l3 2-3 1-1 2c3.63-1.87 3.63-1.87 6-5l3 2 2-1 1.5 4.31.844 2.43c.656 2.26.656 2.26.656 5.26l-21.6.275-7.36.103-10.6.111-3.33.078c-2.8.001-5.37-.031-8.12-.566-2.67-2.92-3.33-5.36-3.56-9.25l-.438-3.75-2-1c-.562-1.75-.562-1.75-1-4l-.625-2.62c-.375-2.38-.375-2.38.625-4.38h-2v-6h-69l-1 4h-2l-2-2-3-1v-4l7-1v2a99.47 99.47 0 0 0 6-2l1-2-3-1 10-3-9-1c6.49-11 6.49-11 11-11zm56 31l1 2zm5 15l1 2z" class="C"/><path d="M197 131l3.37.375 3.5.438 3.24.395c3.41.938 4.78 1.97 6.88 4.79.508 2.78.19 5.15 0 8l2 1-1 5h2c-1 2-1 2-2 3l1.94.312 2.06.688 1 3c4.89 2.29 9.53 2.27 14.8 2.19l2.42-.015c4.09-.048 8.08-.235 12.1-.797 3.75-.388 4.59-.303 7.62 1.62 7.23 7.95 11.1 18.7 11.7 29.2l.309 1.75 2 1-1 5-3 1-1.5 2.5c-1.5 2.5-1.5 2.5-4.5 3.5l-2-1-1 3-2.02.836-1.98 1.16c-.704 2.65-.704 2.65-.75 5.62l-.172 3.04-.078 2.34 1.83.48c5.18 1.51 8.4 2.62 11.2 7.52 3.62 8.22 3.5 15.2 2 24l-.438 2.81c-.562 2.19-.562 2.19-2.56 4.19l-1.38 3.44c-2.35 5.14-2.35 5.14-5.62 6.56-2.73-.117-5.3-.557-8-1l-1 1a214.08 214.08 0 0 1-7.62.5c-12.1.096-12.1.096-22.4 5.5h-2c-1.26 4.55-2.03 8.46-2.12 13.2-.246 3.07-.418 4.35-2.61 6.56-3.24 2.09-5.36 3.25-9.27 3.25v-3l2-1c2.97-5.43 4.17-10.8 4.75-16.9.735-5.63.735-5.63 2.97-7.77 2.08-1.04 4.04-1.74 6.28-2.36 3.55-1.18 3.55-1.18 6.25-3.54 2.6-2.16 4.67-1.78 8-1.71l3.53.078c3.45.184 6.8.646 10.2 1.17 3 .082 6 .061 9 0l.586-1.93.789-2.5.773-2.5c.852-2.07.852-2.07 2.85-3.07l2-5 2-2c.358-4.67-.318-8.15-3.25-11.8l-2.75-2.19-2.69-2.25c-2.18-1.76-2.18-1.76-4.31-2.75-2.59-4.59-2.23-9.21-2.12-14.3l.027-2.53.098-6.15c6.75-4 6.75-4 9-4l.188-1.81c1.14-3.06 2.99-3.74 5.81-5.19l-1-3 .625-1.88c.551-3.12-.942-4.54-2.62-7.12l-.5-2.19c-.399-2.22-.399-2.22-3.5-3.81a150.9 150.9 0 0 1-2-5c-1.06-2.38-1.06-2.38-3-4-5.12-.591-9.11.592-14 2-8.15 1.87-13 .275-20-4l-3.06-1.62c-1.94-1.38-1.94-1.38-2.94-4.38l-3-1-4-22-29 1-3 9-1.56 4.62c-1.26 3.76-2.38 7.55-3.44 11.4l-2.88.25-3.12.75c-.699 1.32-1.37 2.65-2 4-2.56.625-2.56.625-5 1l-1 2c-2.07.414-2.07.414-4.56.625l-2.5.227-1.93.148v-2l-1.94-.184c-5.04-.489-10-1.05-15.1-1.82l-.75 1.88c-1.25 2.12-1.25 2.12-3.25 3-2.35 1.04-2.35 1.04-3.25 4.25l-.75 2.88-3-1 .125 2.38c-.125 2.62-.125 2.62-2.12 4.62-.243 2.44-.243 2.44-.125 5.12l.055 2.76.07 2.12 3 1 1.75 1.81c2 1.94 3.46 2.92 5.88 4.19 4.18 2.48 4.18 2.48 5.38 6a95.27 95.27 0 0 1 .25 7.94l.023 2.13c-.015 4.05-.18 7.41-2.27 10.9-2.16 1.36-2.16 1.36-4.62 2.31l-2.48.988-1.9.699 1 4h-5c-1.57 7.05-.306 10.7 3.25 16.9l1.24 2.3c2.51 4.54 2.51 4.54 6.51 7.83.688 2.62.688 2.62 1 5h-4l-1-3-3-2-.312-3.19c-.806-4.47-2.25-5.91-5.26-9.12-1.99-2.36-2.7-4.72-3.43-7.7l-.75-1.94c-.699-5.77 2.47-10.6 5.53-15.2 1.34-1.97 1.34-1.97 2.72-4.67 1.81-2.63 3.73-3.66 6.5-5.19l1-2h-2l1-7h-2v-2l-1.69-.688c-2.95-1.67-4.95-3.89-7.31-6.31l-2.13-1.29c-1.87-1.71-1.87-1.71-2.33-4.45l.086-3.13.039-3.12c.365-3.27.925-6.6 3.34-9.01.072-1.69.084-3.38.063-5.06l-.027-2.79-.035-2.15h3c1.27-1.95 1.27-1.95.375-3.94-.375-2.06-.375-2.06.688-3.69 2.55-1.81 4.92-2.62 7.94-3.38l3 1 3.44-.125c3.56.125 3.56.125 5.36 1.59 2.98 2.08 5.34 2.04 8.95 2.22l3.55.199 2.7.113 1-5 5-1 2-7 2 3 .332-2.52.48-3.29.457-3.27c.771-3.08 1.47-3.86 3.73-5.92v-3l2.38-.438c2.59-.44 2.59-.44 4.62-1.56 7.48-1.07 14.5-1.05 22 0z" fill="#f2d742"/><path d="M1497 273h3l1 5 3 1-1-6h2l1 6h2l4 6c1.77 1.77 4.32 1.17 6.71 1.21l3.7.06 4.03.051 4.1.063 10.8.153 11 .161 21.6.307v1l-18 1v2l2.09-.988c3.35-1.16 6-1.24 9.54-1.2l3.41.019c2.96.168 2.96.168 5.96 1.17 1.58 3.16 1.06 6.54 1 10v4c-.613 1.69-1.27 3.36-2 5h-2l-1 5h-2v3c-5.37.682-10.6 1.12-16 1l13 1-1 3c-2 .042-4 .041-6 0l-1-1c-2.77-.225-4.52-.257-7 1.06-2.66 1.24-4.24.705-7-.062v-5l-1 1v4c-4.22.196-7.17-.198-11-2v-2l-4.94.438-2.78.246c-2.25.077-2.25.077-3.29 1.32-1.56.021-3.13-.009-4.69-.062-4.19-.054-7.38.491-11.3 2.06h-2v-2l-5-1v-2l-5-1v-2h-2v-2h-3l1-15h2c.076-4.52.102-8.59-1-13l3-2c.794-2.19.794-2.19 1.19-4.62l.48-2.48.332-1.9z" class="G"/><path d="M748 126h50v2l-16 1v1l-2.06.076-9.25.362-3.25.119-3.12.127-2.87.111c-2.59.12-2.59.12-5.45 1.21h-3l-1 2h2l2 2 6 1v6l-3 1 .938 3.06c2.1 6.87 2.2 13.8 2.12 20.9l-.014 2.65-.049 6.41 2 1-1 8 2 1v15h2v5h-2l.032 2.27.093 10.4.051 3.57c.044 8.1-.682 15.8-2.18 23.7l-.441 2.81-.559 2.19-2 1 .105 2.53c.341 14.2.341 14.2-3.11 19.5-2.04.594-2.04.594-4 1-1.32 2.51-1.96 4.79-2.5 7.56-.883 4.31-.883 4.31-2.5 6.44-3.44 1.19-3.44 1.19-7 2l-3 1-1-9-2.21 1.09c-10.4 4.6-22 6.69-32.9 2.5-5.73-2.58-10.3-5.3-13.9-10.6v-2h-2c-.625-1.88-.625-1.88-1-4l2-2 .883 1.61c4.18 7.21 9.05 10.6 17.1 12.9 11.5 2.03 23.6 1.48 33.4-5.15 4.66-3.85 7.15-7.9 7.99-13.9.563-7.26.765-14.4.73-21.7l-.004-3.54-.018-7.55-.024-12-.051-25.4-.053-27.4-.034-13.8-.01-7.22-.016-3.28v-3.07l-.007-2.63c.154-3.63.67-7.24 1.12-10.8z" class="C"/><path d="M674 128l2.3-.014c5.45.016 5.45.016 6.58 1.14l.12 4.9.004 3.22-.011 3.56v3.72l-.013 10.1-.008 10.6-.021 20.1-.022 22.8-.05 47h-1l-1-5 .035 1.76c.053 4.54-.118 8.77-1.04 13.2h-2l-1-4-1 4c-3.75 1.12-3.75 1.12-6 0v2l-4-1h2v-6h-4l1-5h3c-.48-11-.48-11-2.12-21.8-1.57-8.32-.524-16.8.125-25.2h2v-4h4c-1 3-1 3-3 5h2l-1 5 2 1-1 1c-.072 1.52-.084 3.04-.062 4.56l.027 2.5.035 1.93c2.22-1.8 2.22-1.8 2.23-4.25l-.032-2.76-.02-2.99-.051-3.13-.027-3.15-.098-7.72h-2v-6h2v-8h-2v5l-3-1v-3l-6-1 .375-4.38.211-2.46c.414-2.16.414-2.16 2.41-4.16.46-2.2.46-2.2.625-4.62l.227-2.48.148-1.9-5-2 1-3.25c1.17-3.75 1.17-3.75 1-7.75l-2.69.063c-2.93-.055-5.47-.393-8.31-1.06l-.188-2.31c-.584-2.89-.584-2.89-3.25-4.5-2.39-1.33-2.39-1.33-4.56-1.19l-4-1-.75-3.31c-1.32-3.89-2.01-4.53-5.25-6.69v-3l3.94.063c8.26.154 8.26.154 16.1-2.06 6.65-1.05 13.4-1.1 20.1-1.12z" class="R"/><path d="M569 130l2.35.004 7.43.031 5.03.014 12.3.049c-2.36 2.36-3.78 2.49-7 3l2 3h-3v2h-2v2c-5.75 1.12-5.75 1.12-8 0v3l-4 1v2h-2l-.438 3.81c-.3 2.61-.721 4.66-1.56 7.19v7h2v3l3.44.875 3.56 1.12c1.29 2.57 1.24 4.57 1.31 7.44l.113 2.93c-.426 2.63-.426 2.63-2.45 4.41l-1.98 1.21c0 1.89.587 3.73 1 5.56l.562 2.5.438 1.93h-2v3l-4 1v3l4 1-1.94.75c-2.25 1.07-2.25 1.07-2.81 3.38l-.25 1.88h-3l-2 7h-2l-1 4h-3l1 3.56c.997 3.94 1.17 7.39 1 11.4h-2l2 5h-2v6h-2l-1 2-1-2-2 2h-4v4l-1.83.184-2.42.254-2.39.246c-2.18.293-4.24.737-6.36 1.32l-1 4h-10v-6h2v-2l7-1v-13h-2l.438-4.38.246-2.46c.316-2.16.316-2.16 1.32-4.16l1-4 7-1 .5-3.81.281-2.14c.291-2.71.212-5.38.156-8.11.063-2.94.063-2.94 1.06-4.94h2v-2l4-1 .375-2.62c.625-3.38.625-3.38 1.56-6.12 1.21-3.69 1.91-7.36 2.6-11.2.465-2.07.465-2.07 1.46-3.07a83.72 83.72 0 0 0 0-4.62c-.025-4.78.035-9.54.25-14.3l.141-3.78c.699-3.77 1.63-4.96 4.61-7.29l2-1c.652-2.02.652-2.02 1-4l-4-2 1-1-3-2v-4c3.12-1.56 6.43-1.12 9.85-1.1zm620 48c2.81-.25 2.81-.25 6 0 3.18 3.12 3.45 5.91 3.69 10.2l.199 3.27.113 2.48h2c1.28 1.78 2.48 3.63 3.62 5.5l1.91 3.09 1.46 2.41c-1.19-7.23-2.63-14.1-5-21 3.43 1.39 4.7 2.65 6.25 6l1.02 2.12c.734 1.88.734 1.88.734 3.88l3 2c.936 2.01.936 2.01 1.72 4.47l.887 2.73.895 2.86.895 2.78 1.77 5.53 3.84 11.6 1.97 5.92 1.04 3.11 5.96 17.9 2.14 6.39 9.08 27.8 1.98 6.15 1.77 5.5 2.16 6.47c1.04 3.25 1.5 6.43 1.9 9.81h-3l-1 1-6 2 1-4-4 2 2 3h-10l-.367-2.89c-.906-6.99-1.88-13.9-3.27-20.8-.367-2.27-.367-2.27-.367-6.27h-3l-1-7h-2v-2h-7v-5h8v-2h2v-2h-2v-3l-1.56 1c-3.22 1.32-5.99 1.13-9.44 1-.236-5.78.132-10.5 2-16h-5v-7h2c-.55-4.59-1.51-8.64-3-13v-3l-1.81-.625c-3.09-1.94-3.77-4.04-5.19-7.38-.73-3.65-.73-3.65-1.19-7.38l-.48-3.77-.332-2.85h-2v-2l-4-1v-7h2l-.656-2.74-.844-3.57-.844-3.55c-.656-3.14-.656-3.14-.656-6.14h-2v-7z" class="B"/><path d="M1506 206l2 1v4l5-2-1-2 71 1c-1.53 13.8-1.53 13.8-4 19-2.69 1.62-2.69 1.62-5 2v4h-2v-2l-2 1v5l-5 1v3l-4.44.562-2.5.316-2.07.121-1-1c-3.24-.073-6.46.004-9.7.063-2.94-.056-5.44-.433-8.3-1.06h-3v-12l-10 2-1 11c-5.75.125-5.75.125-8-1l-1-2h-3l.812 1.62c.233 2.95-.392 3.42-2.25 5.62l-2.56 2.75-1.75-1.5c-2.35-1.87-2.35-1.87-6.25-1.5l1-3a118.75 118.75 0 0 0 .063-5.69l-.027-3.01-.035-2.3h-2v-4h-6l-1-12 3.38-.25 3.62-.75c1.15-1.97 1.15-1.97 2-4 2.62-.75 2.62-.75 5-1l1-3z" class="G"/><path d="M1382 139c6.75 1.62 6.75 1.62 9 5 .125 3.19.125 3.19 0 6h2v4l3 1v2h4l1 7h2v3h3v2l3 1c.688 2.06.688 2.06 1 4h-2c-.597 2.76-1 5.16-1 8v4l6 1v2h2c1.35 2.71 1.07 5.01 1 8-2.86 1.43-4.93.6-8 0v5h-1v-9l-2.3.254-3.01.309-2.99.316c-2.7.121-2.7.121-5.7-.879v18l-2 1v6c-2.97 1.65-5.66 2.44-9 3v2h-6l2-3-2-1-1-5-2-1 2.38-2.12c4.93-5.4 5.01-10.8 4.88-17.8-.483-5.87-1.86-10.3-5.56-14.9-6.94-5.49-13.2-6.28-21.8-6.22l-2.33.004-7.34.031-4.99.014-12.2.049c-1.05 3.16-1.31 5.87-1.56 9.19l-.254 3.29-.184 2.52h-2c-1.02-4.63-.838-8.34 0-13l-2.38.625-2.62.375-2-2c1.75-4.88 1.75-4.88 4-6l3.31.25c3.83.17 3.83.17 5.93-2.75 3.03-2.75 4.5-3.04 8.53-2.94l2.04.127 2.1.068 5.09.244 1-3v3h4l1-3v3l1.67-.465c4.06-.933 8.19-1.15 12.3-1.54l-16-2 2-4v3h13l1-3 3 1 1-8 12-1v-7z" class="C"/><path d="M1014 129v2h5c-1.26 2.51-2.5 2.87-5 4v2l3 1-2 3 2 2-4 1v-4h-3v2l-10-2-1-4-13-2v-2l2.59.254 3.35.309 3.34.316L998 133l1-1c-9.28-2.25-18.5-2.61-28-3v2l-2 1h6v2h3v-2h2v6h-6v-3h-3v2h-2v-2c-2.21 1.79-2.21 1.79-2.2 4.16l.07 2.46.055 2.48.07 1.9-2.37.551-3.07.762-3.06.738-2.5.949-1 3 3 1c-2.48 2.34-3.78 2.98-7.23 3.29l-3.52-.105-3.55-.082-2.7-.105c-.534 3.87-1 7.53-1 11.4v2.56c-1 1-1 1-3.56 1.06l-2.44-.062v4h-2v3h2v2h-2v3h-2v-4l-2 1v11l-2 1-1 3h-3l.063 3.69c.006 3.23-.275 6.16-1.06 9.31h-1c-1.23-5.67-1.09-11.2-1-17h-6l-1-4h-8v-12l5-2c1.03-2.09 1.03-2.09 1.31-4.5l.426-2.41c.303-2.07.303-2.07.262-4.09l7-2v-7a88.4 88.4 0 0 1 5-1l1 1c2 .041 4 .042 6 0l2-5h2l-1-3v-2c-.639-1.68-1.3-3.35-2-5l2.37-1.24 3.07-1.63 3.06-1.62c2.61-1.26 2.61-1.26 3.5-3.51 1.76-.654 1.76-.654 4.05-1.22l2.54-.634 2.72-.647 2.77-.669c18.9-4.49 41-7.57 58.9 2.17zm-534 10c4.01 2.08 6.33 3.52 8.21 7.7 1.05 3.41 1.94 6.83 2.79 10.3l1.88 6.94 1.54 5.84c3.18 12 6.45 24 10.3 35.9 13 40.6 13 40.6 12.3 52.3h-3l-1 4-7-1v-4h-4l2 4-4-1-.375-1.94-.625-2.06-2-1h2v-4l-3-1c-1.04-2.79-1.88-5.44-2.62-8.31l-.663-2.45c-1.65-6.38-2.57-12.6-2.71-19.2h-2l.312-3.19c-.391-4.78-1.89-5.64-5.31-8.81-.812-2.81-.812-2.81-1-5h-2l-.078-2.6c-.139-7.4-.139-7.4-2.98-14-2.72-4.74-2.46-9.03-1.94-14.4l1-3h-4v-2l5-2v-23h-2v3h-3v-3l3.44-.938c3.35-.692 3.35-.692 4.56-2.06z" class="B"/><path d="M1009 151l2.78.035 2.79.027 2.15.035v2h2v2l5 1v2l8-1 2 6h-2l.562 2.38c.438 2.62.438 2.62-.562 4.62h-4l5 2 1-4h3l1-3c3.43-1.81 6.16-2.2 10-2h3c-2.09 7.46-5.45 13.9-9.16 20.6-1.33 2.43-2.63 4.86-3.84 7.36l-1.43-1.1c-17.1-13-33.7-20.7-55.6-18.9-8.09 1.2-15.5 3.69-23 7v-4l-4-1-1-4c5.5-4.58 9.59-6.25 16.6-7.44 2.41-.555 4.29-1.37 6.44-2.56v-2l2.88-.312c3.42-.373 3.42-.373 5.12-3.69 6.46-1.16 12.8-1.06 19.4-.938 2.99-.071 3.05-1.04 5.91-1.16z" class="C"/><path d="M1320 256h1l.375 3.44.625 3.56 2 1v29h-2l.035 1.79c.076 6.66.076 6.66-.535 9.64-.81 4.15-.574 8.34-.5 12.6h-6v-2l-2 1a143.73 143.73 0 0 1-6 0l1.81.438c1.75.45 3.47.991 5.19 1.56l-1 2c-2.32.402-4.66.727-7 1-3.31.369-3.31.369-6 2-6.03.319-12.1.314-18-1l4-4-4-2 1.94-.688c2.33-1.17 2.33-1.17 2.81-3.94l.25-2.38h3l.076-3.01.296-11 .125-4.78.186-6.86.051-2.17c.152-5.03.152-5.03 1.27-6.14.232-1.51.412-3.04.562-4.56l.254-2.5.184-1.93h2v-2h3v2h2v-2h3c2.3 16.7 2.3 16.7 2 25h7v2h3l1 3 .148-3.78c.37-8.67.843-17.3 1.85-25.9l.251-2.19c.618-4.99.618-4.99 1.75-6.12z" class="B"/><path d="M1368 251h5l2 9c3.11-.669 3.11-.669 4.19-3.06l.812-1.94h3v3l2.28.676c3.39 1.65 4.33 3.28 6.22 6.51l1.8 2.99 1.7 2.82c2.27 3.37 4.68 6.6 7.25 9.75 1.75 2.25 1.75 2.25 2.75 5.25l1.81.25c3.57 1.22 4.57 4.56 6.19 7.75 1.73 3.15 3.62 5.76 6 8.44 2.62 2.98 4.32 5.95 6 9.56l2 2-1 3c-3.98-1.33-6.11-3.01-9-6l-3-1 1 4-5.94.063-3.34.035c-2.72-.098-2.72-.098-3.72-1.1-.393-1.68-.741-3.37-1.06-5.06l-.535-2.79-.402-2.15-4-1-.312-3.38-.688-3.62-3-2v-2l-3.31-.125c-3.69-.875-3.69-.875-5.62-3.94l-1.06-2.94-5.81-.062-3.27-.035c-2.98-.039-2.98-.039-5.92 1.1-1.32-3.62-2-6.1-2-10h-2v-2h7l-1-5h3l-1-2c-.134-2.67-.043-5.32 0-8l-3-1v-6z" class="L"/><path d="M1460 127l2.9.025 3.32.021 3.67.039 3.84.029 10.5.093 10.9.092 20.7.181 23.6.203 48.5.424v2h-2l-1 4h-2l.473 1.9.59 2.48.598 2.46c.34 2.16.34 2.16-.66 4.16h-2l-1 6h-1l-.25-3.69c-.498-4.15-1.96-6.17-4.75-9.31-.812-2.25-.812-2.25-1-4l1-1h-5l1 2c-15.1.937-30.1 1.12-45.2 1.06l-6.66-.014-16.1-.049v2h-8v-6h-3v6h-2v-6h-3v6l-2.44.875c-2.7.858-2.7.858-3.56 3.12h19v1h-36v-4c-1.87-1.93-1.87-1.93-3.5-3.25-2.02-2.35-2.65-4.8-3.5-7.75 1-1 1-1 3.15-1.11z" class="B"/><path d="M186 183l2.58.01 2.7.025 2.72.014 6.66.049v2h2v2l2.12.25c6.86 1.79 11.3 6.66 15 12.5 2.83 5.2 3.53 9.44 3.41 15.3l.047 2.31c-.039 5.68-1.47 8.88-4.55 13.6l-1 3h-2l-.312 1.81c-.793 2.52-1.6 3.58-3.69 5.19h-3v2c-11.3 5.11-21.3 5.18-33.2 1.2-3.49-1.49-5.49-3.22-7.82-6.2l-2.56-2.19c-5.84-6.74-7-14-6.7-22.7.522-6.22 1.34-12.1 5.26-17.1h2l.312-1.94.688-2.06 3-1 1.25-1.5c2.64-2.26 5.37-2.18 8.75-2.5v-3c2.35-1.17 3.74-1.12 6.35-1.1zm-6.29 7.91l-2.03.791c-2.16.851-2.16.851-5.03 2.4l-1 3-4 2c-3.31 4.96-2.37 10.6-2.38 16.4l-.074 3.76-.012 3.61-.025 3.31c.598 3.55 1.72 4.66 4.49 6.89 2.38 1.49 2.38 1.49 4.94 2.69l2.53 1.26c2.54 1.05 4.81 1.7 7.54 2.05l2-1v2c5.8.244 5.8.244 11-2v-2h2l2-3 2 1 2-1v-2h4c4.31-3.93 5.35-8.41 6-14 .144-4.01.122-7.99 0-12l2-1-2-3h-2v-3l-1.88-.25-2.12-.75-.875-1.94c-1.65-3.03-3.93-3.11-7.12-4.06l-1-2c-7.43-2.25-14-1.12-20.9 1.81z" fill="#f2d742"/><path d="M1506 206l2 1v4l5-2-1-2 71 1c-1.15 10.3-1.15 10.3-2.38 14.5l-.711 2.53-.914 1.97-3 1-2-3h-3l-1-3-5 1v5h-5v4l-6-1c3-2 3-2 5-2v-2l-9-2-.375-2.44-.625-2.56c-2.83-1.42-5.47-1.35-8.62-1.56l-3.6-.254-2.77-.184v-2l-2.38 1c-4.63 1.28-8.86 1.15-13.6 1-3.39 0-6.74.212-10.1.438l-3.82.246c-2.93-.021-2.93-.021-4.05 1.32-.231 1.35-.412 2.7-.562 4.06l-.438 3.94-7-1-1-12 3.38-.25 3.62-.75c1.15-1.97 1.15-1.97 2-4 2.62-.75 2.62-.75 5-1l1-3zm-379-79l2.07.029 6.72.114 4.68.072 12.3.202 12.5.201 24.6.404 1.94 3.83 1.09 2.15c1.12 2.33 1.91 4.65 2.6 7.14l2.56 7.75c1.3 4.98.962 10 .812 15.1h2c2.09 3.4 2.18 6.05 2 10l-3 1-.586-1.64-.789-2.17-.773-2.14c-1.18-2.83-2.69-4.89-4.85-7.04l1-2-2-1-1 2-1-2h-2v2h-5l2-1c.468-2.34.827-4.7 1.12-7.06l.508-3.91.367-3.03-5 1-1-7-9 1 1-3c2.56-1.19 2.56-1.19 5-2-5.38 2.24-10.2 2.24-15.9 2.12l-2.66-.027-6.46-.098v-2h-22v2h4v5l-5.88.125-3.3.07c-2.82-.195-2.82-.195-4.82-2.2v-3h-2l-1-5-2 1v-3l-2-1v-2c4.44-.867 8.58-1.1 13.1-1.02z" class="B"/><path d="M434 126h49l1 6 2.57 9.39.426 2.61-2 2-1.38-2.44c-1.37-2.65-1.37-2.65-3.62-3.56l-2 2h-6v3h3v-3h2l1 15 .172 2.71c.078 2.11.078 2.11-.172 5.29-3 2-3 2-6 2v2h4l-.375 5.88-.211 3.3c-.414 2.82-.414 2.82-2.41 4.82h-3v2h4l-1 3h-4l-1 2-1-3-1 4h-3c-2.12-5.62-2.12-5.62-1-9l-1-3h4l.063-10.9.025-3.13.01-2.99.016-2.76c.035-2.28.035-2.28-1.11-4.25-2.13-.467-2.13-.467-4.56-.625l-2.5-.227-1.93-.148v-5h-2c-1.35-2.71-1.07-5.01-1-8l8.31-.562 2.38-.17 2.29-.146 2.11-.143c1.9.022 1.9.022 4.9 1.02l.125-3.88.07-2.18c-.012-2.18-.012-2.18-2.2-3.95-2.91-.279-2.91-.279-6.32-.195l-3.81.019-4 .051-4.02.027-9.86.098v-2l-8-1v-2z" class="G"/><path d="M180 135l3.65.032 3.95.019 4.14.051 4.16.027 10.2.098c1.29 3.04 2.27 5.8 2.71 9.07l.336 2.22.633 4.56c.715 4.61 1.46 7.15 5.32 10.2l-2 1-1.72-1.43c-6.55-4.52-16-3.84-23.7-4.01l-2.63-.104c-4.48-.03-6.35.022-9.94 2.92l-2.05 2.62c-4.25 3.93-4.25 3.93-7.81 4.25l-2.19-.25-1-5 7-1 .551-2.49c5.03-22.3 5.03-22.3 10.3-22.7z" class="M"/><path d="M134 210l.044 2.15.268 9.79.068 3.38c.21 6.51.585 12.8 3.62 18.7l2 1a129.03 129.03 0 0 1 2 7h3v5l2 .25c3.99.998 7.39 2.82 11 4.75v2l-1.95-.254c-7.48-.843-14.6-.519-22.1.254v3l2 1c-2.81.312-2.81.312-6 0-1.62-2.25-1.62-2.25-3-5l-1.82-1.72c-2.78-2.91-4.58-6.01-6.5-9.53l-1.13-1.91c-2.76-5.05-2.73-8.23-1.56-13.8l5-1v-4c5.62-3 5.62-3 9-3 .832-5.72 1.12-11.2 1-17 2-1 2-1 3-1z" class="S"/><path d="M129 165c5.73.61 11.4 1.83 17 3v2l9-1 1-3 3-1 1 3-3 1v2c-3.76 1.96-7.28 3.8-11.4 4.94-2.85.815-2.85.815-3.88 3.56l-.75 2.5-2 2 .438 2.12c.757 3.87.156 6.99-.438 10.9h-1l-1-5-.621 2.52-.816 3.29-.809 3.27c-.515 1.99-1.1 3.97-1.75 5.92h-2l-.727-1.84c-1.56-2.64-2.92-3.31-5.65-4.66-6.75-3.62-6.75-3.62-8.62-6.5-.726-3.33-1.18-6.59-1-10l2-2c.648-2.57.648-2.57 1-5l3-1 .938-2.5 1.06-2.5c2.12-.812 2.12-.812 4-1l.438-1.94c.562-2.06.562-2.06 1.56-3.06z" class="H"/><path d="M277 194l5 1v5l3 1-1 3c.094 2.29.094 2.29.438 4.69l.309 2.45.254 1.86-2 1 2 1c.67 7.77.67 7.77-2.25 11.5-2.75 2.5-2.75 2.5-6.75 2.5l1 6-7-2v5c-2-1-2-1-2.75-2.93l-.691-2.39c-1.89-6.03-1.89-6.03-6.75-9.81-2.25-1.02-4.51-1.97-6.81-2.88-.283-3.71-.459-7.3 0-11 2.44-2.06 2.44-2.06 5-3l1-2 2.38-.312c2.87-.439 2.87-.439 4.31-3.25l1.31-2.44h2l2-2 2 1c-1 3-1 3-3 5v2l7 1 2-4h-4c.875-4.75.875-4.75 2-7z" fill="#f8db3e"/><path d="M1034 287l1 3h2l2 4-2 1 1.94 2.5c2.53 3.73 2.76 7.06 3.06 11.5l-1.83.805-2.42 1.07-2.39 1.05c-2.15.974-4.26 2-6.36 3.07l2 2-2.08.184-2.73.254-2.71.246c-2.61.251-2.61.251-5.48 1.32-1.55.146-3.11.247-4.67.316l-2.71.127-2.81.119-2.85.131-6.96.307-1-2c-2.02-.652-2.02-.652-4-1v-3l2.44-.625 2.56-1.38c.898-3.05.898-3.05 1-6h-2v-3h5v-3l3.73.035 4.9.027 2.45.025c4.43.018 8.56-.192 12.9-1.09v-2h2l-.062-2.44c.063-2.56.063-2.56 1.06-3.56 1.67-.041 3.33-.043 5 0v-4z" class="F"/><path d="M249 165c3.75.438 3.75.438 6.62 3.19 1.8 2.75 2.47 4.19 3.12 7.25l3 2 2 5 1.19 2c1.08 2.66.515 4.26-.188 7v3l-5 3-1 3c-2.81 1.62-2.81 1.62-6 3l-2.06 1c-1.94 0-1.94 0-4.62-1.75-2.46-3.46-2.57-4.29-2.69-8.31-.321-7.61-4.27-14.6-9.62-19.9l-2.44-.938c-2.55-1.06-3.86-1.92-5.56-4.06v-2l1.52.555c3.48.624 6.71.077 10.2-.43l2.09-.277c3.52-.492 6.09-1.83 9.47-2.29z" class="H"/><path d="M213 67l2.19 1.5c3.66 1.95 5.84 1.36 9.81.5l3 6 2.31-.25c2.69.25 2.69.25 4.31 2.19L236 79l3 1v2h-2v4c2.76.597 5.16 1 8 1 2.01 1.46 2.01 1.46 4.12 3.38l2.13 1.9c1.74 1.73 1.74 1.73 2.74 3.73 2.53.656 2.53.656 5 1v2c-3.44 2.29-4.99 2.18-9 2v-2l-3 1-1-5-1.94-.312-2.06-.688-1-3-1.88.625-2.12.375-2-2c-1.13 3.33-2.15 6.59-3 10l-9 1-1-8-2 4c-2 0-2 0-3.62-1.5l-1.38-1.5-1 2c-2.06.625-2.06.625-4 1l1-4h7c-1.72-3.25-1.72-3.25-5-4l1-1-6-3 1-2 2 1v-2l-2-1h3v-2h-5c-2.43-6.29-2.43-6.29-1-10l2.38-.438c2.59-.44 2.59-.44 4.62-1.56z" fill="#f8db3d"/><path d="M250 224h2v3l2.19.625c3.62 1.77 5.33 4.24 7.81 7.38l3 2c.512 2.38.512 2.38.688 5.12l.199 2.76.113 2.12-3 2c-1.2 2.55-1.2 2.55-2 5h-2l-.402 1.93-.535 2.5-.527 2.5c-.535 2.07-.535 2.07-1.54 3.07a53.56 53.56 0 0 1-12.2-.5c-3.51-.468-6.9-.706-10.4-.812l-3.32-.113c-3.61.515-4.73 1.64-6.99 4.43l-3-1c1.29-1.38 2.63-2.71 4-4h2v-2l1.86-.551 2.45-.762 2.43-.738c2.38-.997 3.51-2.11 5.26-3.95h2l2-5h2l.312-3.94c.463-4.22 1.49-7.93 2.92-11.9 1.07-3.01 1.91-6.07 2.77-9.15z" class="S"/><path d="M1312 218h3l2 6-1 2c7.04 1.96 12.8 2 20 1v2l3.69-.062c3.23-.006 6.16.275 9.31 1.06v4l3.44-.062c3.56.063 3.56.063 4.56 1.06 2.35.235 4.71.414 7.06.562l3.91.254 3.03.184v3h-5v2l-5 1v8l3 1v2h-3v2l-2 1-1 2-3-1c-1.67-.039-3.33-.045-5 0l1-4h4l1-2v2h4l-1-2-3-1v-2h4v-6l-3-1v-2h-12v3c-5.09.79-8.91.948-14 0l-3 1-3-2-1 1-2.38-.125c-2.68-.136-2.68-.136-4.44 1.62l-1.19 1.5-3-2 .562-1.75c.478-2.46.195-3.89-.562-6.25h-5l2-1v-2h3v-9l-4-1v-2h3v-2z" class="G"/><path d="M660 136h10l1 5 2-2c.081 3.56-.064 6.58-1 10-2.43 8.97-2.19 17.8-2 27l5-1v3h-2v2h2v3h-2v2h2c.894 3.18.957 5.31.496 8.62-.616 4.55-.36 8.88.004 13.4.438 5.53.488 10.5-.5 15.9h-2v-22h-2v-6h2v-8h-2v5l-3-1v-3l-6-1 .375-4.38.211-2.46c.414-2.16.414-2.16 2.41-4.16.46-2.2.46-2.2.625-4.62l.227-2.48.148-1.9-5-2 1-3.25c1.17-3.75 1.17-3.75 1-7.75l-2.69.063c-2.93-.055-5.47-.393-8.31-1.06-1.59-9.07-1.59-9.07.625-12.6 2.52-1.52 4.46-2.11 7.38-2.44v-2z" class="F"/><path d="M171 272l8 3v2l22-1v-1l3.31-.375c3.76-.38 3.76-.38 6.69-2.62l-.75 7.56-.188 2.13c-.588 5.31-2.02 8.88-5.06 13.3-2.62 1-2.62 1-5 1l-2-1c-1.56-.093-3.12-.132-4.68-.141l-2.81-.059-5.88-.055c-2.63-.069-5.06-.19-7.63-.746-2.04-2.23-2.04-2.23-3-5l-1.15-2.42c-.991-3.01-1.27-5.74-1.48-8.89l-.227-3.24-.148-2.45z" class="G"/><path d="M433 128l4.38-.125 2.46-.07c2.16.195 2.16.195 4.16 2.2 2.91.279 2.91.279 6.32.195l3.81-.019 4-.051 4.02-.027 9.86-.098c1.12 7.62 1.12 7.62 0 11h-20l1 9h-6v-7h-3l-2 2v-2l-4-1v-4h-2l-.375-1.88c-.497-2.32-.497-2.32-2.62-4.12v-4z" class="B"/><path d="M160 265v2l2.69.25c4.08.923 5.61 1.52 8.31 4.75.675 2.88 1.06 5.69 1.35 8.64.866 4.46 2.69 8.29 4.65 12.4l1.9.076 8.48.362 2.98.119 2.85.127 2.63.111c2.15.205 2.15.205 4.15 1.21v2l-10.9.25-3.07.102c-6.94.089-13.1-.562-19.1-4.35-1.85-2.8-1.85-2.8-2.62-5.88l-.852-3.05c-.526-3.09-.626-5.94-.523-9.07h-3l-1-5-23-1v-2h-2v-3c18-3.36 18-3.36 26 1z" fill="#f1d742"/><path d="M180 135l3.65.032 3.95.019 4.14.051 4.16.027 10.2.098c1.45 3.52 2.49 6.81 3.19 10.6l.543 2.82c.262 2.55.07 4.21-.73 6.62l-1-3h-2l-1 2-4-3 1-4h-2l-2-5-2.44.562c-4.35.534-8.25.06-12.6-.562l-1 5h-2l-2 5h-2v4c-2.5 2.25-2.5 2.25-5 4-1.46-5.55-.362-9.46 1.31-14.8l.686-2.32c2.38-7.8 2.38-7.8 6.89-8.15z" class="H"/><path d="M920 243h5l-1 5 2 1-1 2h5l-1 6 3 1c3.23 4.74 4.54 8.31 5 14-4.02 0-5.68-1.79-9-4-3.22-1.24-3.22-1.24-6-2l3 2v3c-4.75 1.12-4.75 1.12-7 0v2l2 1c-4.12 1.18-6.14.726-10-1h-3l.063-2.38c.124-2.61.124-2.61-1.06-4.62l1-2h2v2l2 1-2 4 3.88-.5c2.07-.267 4.04-.5 6.12-.5.283-3.71.469-7.3 0-11-2.44-1.72-2.44-1.72-5-3-.477-2.79-.233-5.15 0-8h2v-2h4v-3z" class="B"/><path d="M939 258c2.62 2.55 4.97 4.96 7.19 7.88 7.55 9.15 20.3 15.1 31.8 17.1 19.4 1.73 37.2-1.44 52.6-14.1 1.33-1.21 2.63-2.46 3.9-3.74l1.55-1.15 3 1c.688 2.06.688 2.06 1 4l-2.19.273c-3.33.86-5.12 2.23-7.81 4.35-11 8.28-21.5 13.4-35.2 14.1l-2.24.116c-17 .746-31-2.95-44-14.4-2.82-2.61-5.38-5.16-7.5-8.38v-2h-2c-.562-1.94-.562-1.94-1-4l1-1z"/><path d="M1509 287l3 1 1-1 5.71-.114h3.7l4.03.016 4.1.004 10.8.025 11 .02 21.6.049v1l-18 1v2l2.09-.988c3.35-1.16 6-1.24 9.54-1.2l3.41.019c2.96.168 2.96.168 5.96 1.17l1 6-3-2-1 2-3-1 2-1-1-2-6-1v3l3 1h-4v2c-6.65.25-12.6-.26-19-2v2c-3.65-1.25-4.78-1.67-7-5-6.78-1.59-14.3-1.65-21.2-.438-3.8.592-7.01.027-10.8-.562l2-4z" class="L"/><path d="M1368 251h5l2 9 5 1v7h2l.063 4.44.035 2.5c-.098 2.07-.098 2.07-1.1 3.07l3 1-2 5-2.52-.035-3.29-.027-3.27-.035c-2.98-.039-2.98-.039-5.92 1.1-1.32-3.62-2-6.1-2-10h-2v-2h7l-1-5h3l-1-2c-.134-2.67-.043-5.32 0-8l-3-1v-6z" class="F"/><path d="M134 210l.044 2.15.268 9.79.068 3.38c.21 6.51.585 12.8 3.62 18.7l2 1a129.03 129.03 0 0 1 2 7h3v5l2 .25c3.99.998 7.39 2.82 11 4.75v2l-3.69-1.38c-5.09-1.74-10.2-2.35-15.5-2.9-3.38-.867-3.96-1.88-5.82-4.72l-3-1c-1.26-7.13-.711-13.8 0-21l-2-1h2v-3l-2-1h2c.832-5.72 1.12-11.2 1-17 2-1 2-1 3-1z" class="M"/><path d="M1136 251l2 1c.183 4.03-.058 6.48-2 10l1.75.069 18.1.73 6.74.271 9.69.395 3.04.117 2.85.121 2.5.101c2.52.207 4.92.655 7.39 1.2v2h-4v2c-8 0-8 0-10.4-.625-2.8-.701-2.8-.701-5.56 1.62-3.42.4-6.87.564-10-1l-1 4h-13l-1-4 3 1a118.75 118.75 0 0 0 5.69.063l3.01-.027 2.3-.035v-2l-2.96.035-3.86.027-3.83.035c-3.36-.098-3.36-.098-6.36-1.1v-2l-4-1 1 4 4 1-1 3v-2h-3l-2 2v-2l-2-1h2l-2-5h2l-1-3c-.347-6.48-.347-6.48 2-10z" class="B"/><path d="M1511 281l1 2h81v4l-31.2.104-14.5.047-14 .039-5.34.022-7.46.016-2.25.022c-5.1-.021-5.1-.021-7.33-2.25v-4z"/><path d="M434 126h49l1 6 2.57 9.39.426 2.61-2 2-1.38-2.44c-1.37-2.65-1.37-2.65-3.62-3.56l-2 2h-5a38.63 38.63 0 0 1-1-9c-1.86-2.29-1.86-2.29-4.8-2.23l-3.52.032-3.81.019-4 .051-4.02.027-9.86.098v-2l-8-1v-2z" fill="#007a40"/><path d="M158 165l2 3-3 1v2c-3.76 1.96-7.28 3.8-11.4 4.94-2.85.815-2.85.815-3.88 3.56l-.75 2.5-2 2 .438 2.12c.757 3.87.156 6.99-.438 10.9h-1l-1-5-.621 2.52-.816 3.29-.809 3.27c-.515 1.99-1.1 3.97-1.75 5.92h-2c-1.84-6.99-2.37-13.7-2.66-20.9l-.344-3.06-2-1c4.7-4.82 4.7-4.82 8.4-5.33 2.22.017 4.39.111 6.6.332v-3a68.33 68.33 0 0 1 4-3l1-2h9l1-3 2-1z" class="M"/><path d="M932 198l3 1-1 3 2 1-.84 3.52c-1.9 8.15-3.59 16-3.89 24.4l-.273 2.09-2 1 .063 3.75c.005 2.91-.132 5.46-1.06 8.25h-2v-8l-1 1c-1.88.75-1.88.75-4 1-1.66-1.17-1.66-1.17-3-3-.004-2.41-.004-2.41.438-5.06.469-2.59.469-2.59.562-4.94l-2-2h3l.148-1.9.227-2.48.211-2.46c.414-2.16.414-2.16 2.41-4.16h3l-1-3h4c.154 5.53-1.22 9.79-3 15h2l1-6.88.562-3.87c.482-3.04.482-3.04.438-5.26v-3h2l-.562-2.25c-.43-2.7-.289-4.2.562-6.75z" class="N"/><path d="M673 224l3 1 4-1 1 11h1l.063 7.31.025 2.09c.015 3.14-.086 5.59-1.09 8.6l-.562 6.19-.254 3.29-.184 2.52h-2l-1-5h-2v-2h-2c-1.02-3.34-1.07-6.33-1-9.81.044-4.52-.337-8.71-1-13.2-.084-3.34-.06-6.66 0-10l2-1z" class="B"/><path d="M558 126h55v2l-2 1c-.692 2.81-.692 2.81-1.12 6.06l-.508 3.35-.367 2.59-2-1a195.86 195.86 0 0 0-7 0l-4-10-38-1v-3z" fill="#006f3d"/><path d="M1464 128h124v2l-4.38 1-2.46.562C1579 132 1579 132 1577 132v-2l-8.94.438-2.58.119-2.45.127-2.27.111c-1.79.023-1.79.023-2.77 1.21l-4.94-.735c-3.61-.464-7.21-.396-10.8-.379h-2.57l-8.36.016-5.82.004-15.3.025-15.6.02-30.6.049v-3z" class="O"/><path d="M1135 241c2.57.395 4.67.836 7 2l-.938 4.75-.527 2.67-1.54 6.58h44l-1 3-17.8.11-6.07.041-8.71.044-2.75.031h-2.55l-2.25.014c-1.83-.241-1.83-.241-3.83-2.24l-1-6c-1.46 2.65-2 3.89-2 7l-7-3c-.125-7.62-.125-7.62 1-11 2.5-1.62 2.5-1.62 5-3l1-1z" class="K"/><path d="M233 75l1.88.812c4.3 1.64 8.71 2.9 13.1 4.19v3l3.19.125c5.03 1.15 5.99 2.68 8.81 6.88v2h7l1 3 7 1v4h-3v-2l-1.91.035c-2.7.028-5.39.007-8.09-.035l-2.27-.012c-4.1-.227-5.55-.799-8.42-3.8l-2.31-3.19c-3.47-3.34-3.47-3.34-8-4-1.34-.306-2.68-.635-4-1v-4h2v-2l-1.88-.375c-2.12-.625-2.12-.625-4.12-2.62v-2z" fill="#ecd03c"/><path d="M171 272l3 1 1.33 6.06c.57 2.25.57 2.25 3.3 3.81l2.38 1.12v2l5 1-1 2 3 1v2l5.38.125 3.02.07c2.76.077 2.76.077 4.6-2.2l.438-2.5c.562-2.5.562-2.5 3.56-4.5v-3l3-1-1-2h3c.546 6.28-.972 11.5-4 17-3 2-3 2-5.38 1.63l-2.62-.634a109.93 109.93 0 0 0-4.98-.141l-2.78-.059-5.76-.055c-2.58-.069-4.96-.188-7.48-.746-2.02-2.23-2.02-2.23-3-5l-1.15-2.42c-.991-3.01-1.27-5.74-1.48-8.89l-.227-3.24-.148-2.45z" class="H"/><path d="M1390 298l1 2 4 1 1 13h4v3l-4 1 4 1v3h-10v-2l-1.94-.5c-2.06-1.5-2.06-1.5-2.55-3.41l-.512-6.09-3-1 1-9c3-1 3-1 5.19-.062l1.81 1.06v-3z" class="G"/><path d="M900 198h11c2.46 11.4 2.46 11.4 2 16-2 2-2 2-5.48 2.2l-4.15-.07-2.14-.027-5.23-.098.465-2.2c.486-2.54.829-5.04 1.1-7.61l.254-2.39.184-1.79h2v-4z" class="B"/><path d="M1121 128c2.86-.361 2.86-.361 6.56-.341l2.04-.001 6.69.049 4.63.013 12.2.074 12.4.059 24.4.146 1.94 3.83 1.09 2.16c1.11 2.29 1.91 4.56 2.6 7.01l.715 2.52 2.66 10.5h-2l-.812-2.94-1.19-3.06-3-1c-2.7-5.4-2.19-11.1-2-17-4.34.185-4.34.185-8 2-3.78-.151-7.53-.405-11.3-.684l-2.41-.16-2.2-.162c-2.19.006-4 .389-6.09 1.01v-2l-2.36.092-10.8.408-3.72.145c-8.04.297-16.1.416-24.1.355l2-3z" class="E"/><path d="M1308 294l2 4h2c1.32 3.62 2 6.1 2 10l-1 2a143.73 143.73 0 0 0 0 6h-6l1.81.438c1.75.45 3.47.991 5.19 1.56l-1 2c-3.38.626-6.56 1-10 1-.892-5.81-1-11.1-.562-17l.158-2.35.404-5.65 5-2z" class="G"/><path d="M1211 220c1.94.375 1.94.375 4 1l1 2-1 2h2v8l2 1 2 5c1.42 3.86 1.42 3.86 4 7 .344 1.99.344 1.99.5 4.31.322 3.59.991 6.39 2.5 9.69.688 2.25.688 2.25 1 4l-1 1 2 2.12c2.3 3.31 2.37 4.94 2 8.88h-3c-4.9-9.27-8.09-19-11-29l-1.56-5.19-.742-2.51c-.593-1.97-1.23-3.92-1.88-5.87-.997-4.22-.988-8.13-.812-12.4l-2-1z" class="E"/><path d="M686 269l1.69 2.19c5.6 6.81 11.5 11.2 20.3 12.8 13.1.753 23.8.078 34-9l3-3c-1.1 5.15-2.61 8.12-7.06 11.1-9.89 6.16-20.4 7.76-31.9 5.94-7.23-2.11-13.7-5.67-18-12v-2h-2c-1.12-3.75-1.12-3.75 0-6z"/><path d="M191 327v2c4.79.234 4.79.234 9-2 2.45-.203 2.45-.203 5.39-.135l3.34.061 3.6.098 3.69.076 11.7.276 7.91.172 19.4.453-2 3c-2.6.286-4.97.378-7.57.341l-2.37.001-7.76-.049-5.37-.013-14.2-.074-14.4-.06-28.3-.146v-1l8-1v-1c6.62-1 6.62-1 10-1z" class="P"/><path d="M250 224h2c2.25 4.5 2.17 8.08 2 13l-2 1c-.656 2.18-.656 2.18-1.06 4.75l-.473 2.61-.871 5.33c-.857 3.33-2.85 4.37-5.59 6.31l-2 2c-3.84 1.48-7.95 1.07-12 1l3-2 2.56-2.12c2.44-1.88 2.44-1.88 4.44-1.88l2-5h2l.312-3.94c.463-4.22 1.49-7.93 2.92-11.9 1.07-3.01 1.91-6.07 2.77-9.15z" class="M"/><path d="M1511 204l73 1-1 3-26.4.104-12.3.047-11.8.039-4.51.022-6.32.016-3.63.013c-2.94-.231-4.59-.701-7.06-2.24v-2z"/><path d="M84 110l3 1v4h-2l-1 3c-4.96 5.36-9.89 6.15-17 7l-1 3h-2v2l-5.37 3.03c-1.61.87-1.61.87-2.63 1.97l-3.31.375c-3.6.61-5.06 1.21-7.69 3.62l-1-5 3-1 1-3 8-1 1-3h7l1-4h3v-3l7-1 1-3h8v-5z" fill="#c8b136"/><path d="M1026 125c8.03 1.94 15.4 4.68 23 8l4.25 1.81L1056 136v2h3v2c-6.46.881-10.5-1.59-16.1-4.6-3.45-1.67-6.09-2.23-9.89-2.4l.254 1.93.309 2.5.316 2.5.121 2.07-1 1c-2.69-.176-5.33-.618-8-1l1-9 4-1c-1.67-3.22-1.67-3.22-4.62-3.69l-2.38-.312 3-1v-2z" class="B"/><path d="M1118 316l3 3-3 9h-32l1-3h4l.375-1.94.625-2.06c2.71-1.35 5.01-1.07 8-1l-4 1 1 2c6.25-.43 12-1.01 18-3v-2l-2-1c2.31-.688 2.31-.688 5-1z" class="C"/><path d="M1390 260c3.29 1.39 4.93 2.85 6.99 5.75l1.63 2.27 1.7 2.42 1.77 2.49a315.3 315.3 0 0 1 10.1 15.2c2.44 3.79 5.05 7.46 7.67 11.1l11.8 17 1.23 1.84c2.16 3.25 4.23 6.54 6.21 9.91-6.98-2.99-11.3-9.59-15-16l-1.07-1.8c-2.93-4.96-2.93-4.96-2.93-7.2l-1.88-.688c-2.79-1.72-2.95-3.28-4.12-6.31-.821-1.07-1.68-2.11-2.56-3.12-2.44-2.88-2.44-2.88-3.44-5.88l-2-1-3-6c-2.6-4.55-5.22-8.34-9-12-4-5.56-4-5.56-4-8z"/><path d="M748 126h50v2l-16 1v1l-2.06.076-9.25.362-3.25.119-3.12.127-2.87.111c-2.59.12-2.59.12-5.45 1.21l-5 1-1 9-3-1 1-15zm-1 16l3 2-1 5h-2v-7z" fill="#005e31"/><path d="M1303 217c1 1 1 1 1.13 3.26-.015 5.36-.195 10.5-1.13 15.7h-11l1-18c3.25-1.63 6.39-1.11 10-1z" class="D"/><path d="M1369 128v2c-11 .813-21.9 1.14-32.9 1.1l-4.64-.004-12-.025-12.4-.02-24.1-.049 1-3 23.3-.482 7.89-.166c18-.396 35.9-.243 53.8.648z" class="O"/><path d="M206 277l3 2-3 2c-1.19 2.05-1.19 2.05-2 4h-2l.25 2.31c-.25 2.69-.25 2.69-1.94 4.38-2.87 1.63-4.33 1.47-7.56 1l-2.7-.363-2.05-.324v-2l-4-1v-2l-3-1v-2h-2l-2-4c3.37.547 5.08 1.05 8 3l7.69.625 2.13.117 5.19.258.867-1.89c1.33-2.47 2.82-3.57 5.13-5.11z" class="C"/><path d="M1000 152l-3 2 5 1v2l2 1-3.19.438-8.81 1.56v2l-12 1v-2h-5l-1-4 2.88-.312c3.42-.373 3.42-.373 5.12-3.69 1.85-.512 1.85-.512 4.06-.688l2.41-.195c3.85-.178 7.68-.178 11.5-.117z" class="B"/><path d="M1492 277l2.48.027 1.9.035v5l-4 2 1 2.12c1.1 3.17 1.22 5.55 1 8.88l-1 2h-2v11c-1.84-3.67-2.44-5.96-3-9.94-.438-3.09-.87-5.75-2.05-8.64-1.02-2.61-1.15-4.45-1.07-7.23l.055-2.39.07-1.79c2.41-1.2 3.95-1.1 6.62-1.06z" class="D"/><path d="M229 171c9.03.345 9.03.345 12.7 2.81 1.31 2.19 1.31 2.19 1.06 4.44l-.75 1.75 3-1 6 18h2v6c-1.69.812-1.69.812-4 1-2.69-1.75-2.69-1.75-5-5-.293-2.36-.293-2.36-.375-5.06-.321-7.61-4.27-14.6-9.62-19.9-1.65-.707-3.32-1.38-5-2v-1z" class="F"/><path d="M270 242c3.05 3.05 3.15 6.12 3.19 10.3-.049 4.26-.693 7.7-2.19 11.7l-2 1c-.659 1.32-1.28 2.65-1.88 4-1.12 2-1.12 2-4.12 4-2.74-.031-5.28-.555-8-1l1-2 1.94-.375c2.18-.418 2.18-.418 3.12-2.25l.938-2.38 1.5-3.44 1.5-3.56 1.19-2.56c.98-2.48.98-2.48.75-5.44.073-3.52 1.06-5.17 3.06-8z" fill="#f8db3e"/><path d="M582 220c.221 4.59-.464 8.05-2 12.4l-1.12 3.21-.875 2.41h-7v-6h-3l1-8h2v-2c7.62-2 7.62-2 11-2z" class="L"/><path d="M31 150h1v170h-1V150z" fill="#f3d842"/><path d="M1546 208l3.19.004 10 .031 6.83.014 16.7.049-.434 4.25-.244 2.39c-.444 3.26-1.32 6.24-2.32 9.37l-2-1 .781-5.96c.272-2.2.272-2.2.219-5.04l-52-2v-1c6.46-.969 12.8-1.13 19.3-1.1z" class="E"/><path d="M601 159c1.06 3.2.952 4.97-.215 8.11l-.83 2.29-.893 2.36-.881 2.4-2.18 5.85h-2l-1-3h-4c-.492-7.26-.492-7.26 2-11l2-2-3-1h3v-2l-3 1v-3c4.05-1.35 6.79-.621 11 0z" class="K"/><path d="M495 207h4l.875 2.75c.988 3.12.988 3.12 2.25 5.38.875 1.88.875 1.88.875 5.88h6l2.06 6.75 1.16 3.8c.704 3.13.944 4.55-.223 7.45-2.77-2.77-2.47-5.18-3-9-.956-2.34-.956-2.34-2-4-1.11 3.32-1.32 6.2-1.56 9.69l-.254 3.57-.184 2.74c-1.97-2.96-2.36-4.17-2.82-7.56l-.377-2.66-.369-2.77-.754-5.44-.326-2.43c-.331-2.31-.331-2.31-1.36-5.13l-5-1 3-1-1.56-1.81-1.44-2.19 1-3z" class="E"/><path d="M777 187h3v4h2v2h-2v3h2c1.12 7.62 1.12 7.62 0 11h-2v21h-3l-1 2-.062-10.9-.025-3.07c-.018-5.69.224-11.2.863-16.9.271-2.6.325-5.17.287-7.78l-.027-2.54-.035-1.84z" class="C"/><path d="M679 154h1v69h-2v-22h-2v-6h2l-1-7h-1v-12h2l-.035-2.78c-.048-6.51.006-12.8 1.04-19.2z" class="D"/><path d="M1379 204l1 3c-4.65 6.43-8.9 10.1-16.8 11.6-6.11.752-12.2.653-18.4.603l-7.06-.02-4.49-.018-2.13-.003c-4.92-.048-4.92-.048-7.15-1.16l1-3 3.44.063 12.7.156 5.49.082 7.93.089 2.44.063c6.85.003 12.9-1.8 18.2-6.38l1.37-1.83 1.44-1.86.996-1.39z"/><path d="M795 203h1c.967 13.8 1.22 27.5 1.24 41.3l.072 10.6.016 6.88.037 3.15c-.022 7.36-1.3 13.9-3.37 21-1-3.65-1.05-6.79-.914-10.6l.133-3.87.078-2.01.211-6.06c.361-9.94.361-9.94 1.01-12.5.647-2.59.616-5.01.619-7.67l.004-3.38-.012-3.52.012-3.45c-.007-6-.267-11.9-.945-17.8-.239-2.64-.091-5.11.246-7.74l.309-2.54.254-1.84z" fill="#00b561"/><path d="M1138 255l1 2h44l-1 3-17.8.11-6.07.041-8.71.044-2.75.031h-2.55l-2.25.014c-1.83-.241-1.83-.241-3.83-2.24v-3z"/><path d="M575 238h2c-1.56 8.74-4.78 16.8-8 25h-1v-9l-4-1c0-3 0-3 2-5 .243-2.21.243-2.21.125-4.62l-.055-2.48-.07-1.9h3l1 6c3.33-2.22 3.75-3.35 5-7z" class="R"/><path d="M530 260l3.55.109 2.7.141v6l-4 1v2h-11l-2-5c3.32-4.17 5.52-4.46 10.8-4.25zm27 11h4c1.72 1.91 2.86 3.71 4 6h-2c-1.61 3.65-2.45 7.05-3 11h-2l-2-3-3-1v3h-2c-.125-6.62-.125-6.62 1-10 2.56-1.19 2.56-1.19 5-2v-4z" class="D"/><path d="M1215 205c2.32 2.82 3.55 5.17 4.5 8.69 1.33 4.83 2.9 9.56 4.5 14.3l1.97 5.92 1.04 3.11 4.12 12.4 2.11 6.07c.754 2.51.754 2.51.754 6.51l-4-1-.332-2.31c-.894-5.82-1.98-11.2-4.08-16.8-.586-1.94-.586-1.94-.586-5.94h-3l-.297-2.71c-.848-6.85-2.01-12.8-4.82-19.1-1.24-3.07-1.6-5.91-1.89-9.2z" class="I"/><path d="M210 122c2.05 1.1 3.72 2.31 5.49 3.81 1.62 1.42 1.62 1.42 4.51 2.19v2h-2l-1 5-3-2v-3c-3.44-1.72-7.36-1.4-11.2-1.62-2.85-.379-2.85-.379-5.85-2.38v-2c4.33-2.43 8.12-2.84 13-2z" fill="#f9db3d"/><path d="M985 122l3.3-.049c10.8-.006 20.3 2.08 29.8 7.36-3.49 1.21-3.49 1.21-5.73.293l-1.9-1.11c-7.29-3.48-15.4-3.62-23.4-4.19l-3.13-.258c-8.97-.383-17.7 1.81-26.4 3.72l-12.5 2.54c2.62-2.62 4.88-3 8.44-4l3.5-1c9.37-2.4 18.3-3.34 28-3.31z"/><path d="M53 236h4v5h6v8l-2 2 2 1h-5l-1-1-4 1v-16z" class="J"/><path d="M1583 287l3.9-.022c3.01.115 3.01.115 5.01 1.12l-2 10c-2.17-2.17-3.52-4.31-5-7v-2l-11.7.438-3.34.119-3.23.127-2.97.111c-2.67.198-5.17.621-7.77 1.21v-2h-19v-1l14.9-.427 5.06-.146 26.1-.521z" class="I"/><path d="M84 110l3 1v4h-2l-1 3c-5.28 5.28-10.1 6.86-17.5 7.12l-2.5-.125 1-3h3v-3l7-1 1-3h8v-5z" fill="#b39f30"/><path d="M927 251l3 1-1 5 3 1c3.23 4.74 4.54 8.31 5 14-3.96 0-5.11-1.41-8-4-2.49-3.74-2.21-5.74-2.12-10.2l.055-3.86.07-2.96z" class="E"/><path d="M929 233h2l.586 3.25.789 4.19.383 2.14 1.24 5.42 2 1 1 5h-2l-1 2-.25-1.88c-.577-2.26-.577-2.26-2.56-3.5-2.22-.873-2.22-.873-4.44.25l-1.75 1.12c-.981-3.05-.981-4.95 0-8l1 2h2l-.035-2.59-.027-3.35-.035-3.34c.098-2.72.098-2.72 1.1-3.72z" fill="#00a958"/><path d="M192 50.9l2.62-.008c2.38.133 2.38.133 5.38 1.13l1 2 2.44 1.38c2.69 1.7 3.46 2.71 4.56 5.62-5.44-.473-9.85-2-14.9-4.16-2.06-.962-2.06-.962-4.14-.84v-2h-5v-2c2.95-.983 4.93-1.13 8-1.12z" fill="#e4cb3e"/><path d="M1307 216h7v2h-2v2h-3l1 2 3 1v9h-3v2l-3 1-.562-7.81-.17-2.24c-.225-3.32-.33-5.76.732-8.95z" class="D"/><path d="M1493 199l1 2h4v6h-4v2h-10l-1-2h2l.312-2.38c.688-2.62.688-2.62 3.69-4.62l4-1z" class="B"/><path d="M164 63h6l-4 4-2.12 2.31c-5.86 5.48-11.6 10.5-19.9 10.7v-4l3.31-.812c3.42-1.1 4.46-1.61 6.69-4.19h2v-3h6v-2h2v-3z" fill="#d3bc39"/><path d="M671 185h4c.894 3.18.957 5.31.496 8.62-.616 4.55-.36 8.88.004 13.4.438 5.53.488 10.5-.5 15.9h-2v-22h-2v-6h2v-8h-2v-2z" class="L"/><path d="M182 141c6.53-.125 6.53-.125 9.12.562 2.5.583 4.42.052 6.88-.562l2 5c-1 1-1 1-4.82 1.1l-4.75-.035-2.44-.014-5.99-.049v-6z" class="B"/><path d="M276 99l4 1v2l7 1v3h8l1 3c2.02.733 2.02.733 4 1v6l-3-1v-2l-9-3v-2l-1.81-.438c-4.23-1.09-6.3-2.29-9.19-5.56l-1-3z" fill="#bca733"/><path d="M647 167l4.88-.062 2.74-.035c2.38.098 2.38.098 4.38 1.1v6h-2v3h-5l-1 2c-1.12-7.62-1.12-7.62 0-11h-2v6h-2v-7zm721 84h5l.332 1.93.48 2.5.457 2.5.73 2.07 3 1v6l-6 1c-1.61-3.21-1.06-6.44-1-10l-3-1v-6z" class="D"/><path d="M1150 214c1.12 3.36.902 4.02-.215 7.23l-.83 2.43-.893 2.53-.881 2.56-2.18 6.25c-3.13-3.39-3.34-5.71-3.19-10.2l.082-3.27.105-2.48h2l1-2 3 1 2-4z" class="B"/><path d="M1318 171l1 3h3l.063 6.38.035 3.59c-.098 3.04-.098 3.04-1.1 5.04v4h-5l.254-2.52.309-3.29.316-3.27c.297-2.98.297-2.98-.879-5.92l1-2h-2v-2h2l1-3zm-26 68h5v5l1-1v-4h5v10c-7.75.125-7.75.125-10-1-.414-2.07-.414-2.07-.625-4.56l-.227-2.5-.148-1.93z" class="D"/><path d="M105 99l3 1c-2.15 4.19-4.75 7.81-9 10-3.05.405-5.94.29-9 0h-1l-1-3c1-1 1-1 4.56-1.06l3.44.063v-3l8-1 1-3z" fill="#baa632"/><path d="M1263 166l-1 4 8-1v2l8 1 1 4-4 1 1-3h-17l-1-5c1.6-2.21 2.23-3 5-3z" class="H"/><path d="M539 259l4.56.438 2.5.309 1.93.254.063 4.88.035 2.74c-.098 2.38-.098 2.38-1.1 4.38h-2l1-4-8-2v-6l1-1z" class="D"/><path d="M130 240h1v7l5 1-1 2c.888 2.58 1.48 3.73 3.94 5l2.06 1 3 4c-7.54-.495-7.54-.495-9.81-3l-1.19-2-3-1c-.779-5.02-1.13-8.98 0-14z" class="N"/><path d="M52 202h4l1 3v-3h6v4h-2l2 5H53l-1-9z" class="J"/><path d="M308 119h6v3h5l1 4h7v4h8l-1 2c-5.19.212-9.13-.409-14-2v-3l-3-1-1-1-1.81-.25c-3.12-1.07-4.3-3.13-6.19-5.75z" fill="#8e7f27"/><path d="M470 167h2v2h4l-1 11h-5c-2.09-3.4-2.18-6.05-2-10h2v-3z" class="C"/><path d="M1427 317c3.19 2.94 5.09 4.76 6 9l3 1v1l-6.38.188-3.59.105-3.04-.293-2-3 5-1-.062-2.94c.063-3.06.063-3.06 1.06-4.06z" class="S"/><path d="M1552 212l6 2v2l-5 1v5h-2l-1 3-.375-2.44L1549 220c-2.83-1.42-5.47-1.35-8.62-1.56l-3.6-.254-2.77-.184 1-2 6.06-.625 3.35-.227 2.59-.148v-1l5-1v-1z" class="C"/><path d="M1358 136l3.86.309 2.96.254v3h-25v-3l5.96.098c4.33-.207 7.71-1.03 12.2-.66z" class="D"/><path d="M324 328l1.75 1.06 4 1v1h-27v-3l2.12.625c2.91.592 2.91.592 5.69-.562 4.49-1.5 8.94-2 13.4-.125z" fill="#f9db3d"/><path d="M1137 258l3 1 6.64.316 3.94.127 4.12.119 4.15.131 10.2.307v2l-13.1.482-4.47.166-6.42.231-3.9.143c-3.07-.022-3.07-.022-5.07-1.02l1-4z" class="I"/><path d="M921 265l7 2 1 4 7 2v3l-6-1v2l-6-1c-.931-2.61-1.15-3.64-.062-6.25l1.06-1.75-4-1v-2z" class="C"/><path d="M328 138c6.52.492 6.52.492 8.94 3.06L338 143h-2l-1 3-2-2v3h-12v-1h5v-5l2-1v-2z" fill="#f8de3f"/><path d="M1423 192l4 2-1 13-2-2-1 2h-2c-1.34-4.03-1.27-7.8-1-12 1.5-2 1.5-2 3-3z" class="K"/><path d="M1418 171c3.88 3.75 3.88 3.75 5 6l3 1v-5c2.68 3.08 3.42 5.2 3.69 9.25l.199 2.7.113 2.05h-4l-2-6h2v-2l-5 1-1-5h-2v-4z" class="E"/><path d="M1199 243h6v11h-6v-11zm-654 36l-1 10h-6c-1.12-6.75-1.12-6.75 0-9 2.39-.612 4.54-1 7-1z" class="D"/><path d="M1386 256c2.96 2.75 4.98 5.41 6.94 8.94 2.31 3.97 4.77 6.85 8.06 10.1 1.88 2.55 3.72 5.09 5 8l-1 3-3.52-4.98c-1.1-1.5-2.26-2.97-3.43-4.41-2.06-2.61-3.84-5.29-5.61-8.11l-1.75-2.78-1.68-2.72-1.71-2.72c-1.29-2.28-1.29-2.28-1.29-4.28z" class="H"/><path d="M491 161h1l.535 2.06 2.4 9.25.842 3.25.811 3.12.746 2.87 1.66 5.45-2 2c-2.64-4.56-3.7-8.79-4.57-13.9-.228-2.06-.228-2.06-1.43-3.07a110.13 110.13 0 0 1-.062-5.56l.027-3.07.035-2.37z" class="I"/><path d="M36 328l10.9-.188 3.13-.076 2.99-.029 2.76-.048 2.25.341 2 3h-25l1-3z" class="P"/><path d="M1143 214l2 1-1 4h-2l.219 1.83.281 2.42.281 2.39C1143 228 1143 228 1143 232h-2l-2 4c-1.66-5.25-1.66-5.25-2-8 1.31-2.38 1.31-2.38 3-4l1-2h-2l1-4-2-1 5-3z" class="K"/><path d="M126 184c2.21 1.77 2.94 2.71 3.51 5.52l.176 2.85.199 2.84.113 7.79c-1.75-2.62-2.39-4.04-3-7h-2c-1.51-3.02-1.18-5.67-1-9l2-3z" class="C"/><path d="M582 199c3 1 3 1 5 4 1.31 3.94.243 6.12-1 10-2.94-1.62-2.94-1.62-6-4-.875-3.25-.875-3.25-1-6h2l1-4z" class="L"/><path d="M240 173l2.81 1.06c3.17 1.26 3.17 1.26 6.19-.062 2 3 2 3 1.62 5.69l-.625 2.31h-2l-1 5h-1l-2-7h-2l1-4-3-1v-2z" class="N"/><path d="M128 328c5.28-.305 6.58-.317 11 3H92v-1l36-1v-1z" class="P"/><path d="M493 186c2.97 2.61 3.47 4.47 3.77 8.45l.109 2.05.18 2.05c.313 4.96.313 4.96-1.55 7.42l-1.51 1.03c-.922-2.77-1.12-4.38-1.1-7.23l.01-2.43.025-2.53.014-2.56.049-6.25z" class="E"/><path d="M267 154c3 1 3 1 4 3v-3h2l2 5h2v3l3 1-2 2-1.75-1c-2.45-1.27-2.45-1.27-6.25-1l-1-4h-2v-5z" class="J"/><path d="M1506 252l2 1 .125 5.81.07 3.27c-.195 2.92-.195 2.92-2.2 5.92l-2-1c-1.08-4.55-1.53-9.53 0-14l2-1z" class="Q"/><path d="M966 132h9v2h3v-2h2v6h-6v-3h-3v2h-2v-2l-4 1 1-4z" class="D"/><path d="M935 254c2.5 2.94 3.47 5.18 4 9h2c1.37 1.61 1.37 1.61 2.88 3.75 2.18 3.02 4.38 5.71 7.12 8.25l-1 2c-6.42-5.08-11.4-10.6-15-18-.25-2.94-.25-2.94 0-5z" class="I"/><path d="M1132 164l4 1-2 15-3-1-.625-5.81-.352-3.27c-.023-2.92-.023-2.92 1.98-5.92z" class="N"/><path d="M486 165l2 1 1.12 6.31.508 3.49c.367 3.2.367 3.2.367 7.2l-2-1v-3h-2c-1.97-4.75-2.08-7.98-1-13l1-1z" class="E"/><path d="M233 75l1.88.812c4.3 1.64 8.71 2.9 13.1 4.19v4c-3.38.188-3.38.188-7 0l-2-3c-1.97-1.06-3.97-2.07-6-3v-3z" fill="#e5cc3e"/><path d="M254 230h1l1.12 4.25.633 2.39c.285 2.78-.308 4.02-1.76 6.36l-1-4-.184 1.9-.254 2.48-.246 2.46c-.316 2.16-.316 2.16-1.32 4.16h-3v-5l1-1 .562-5.06.254-2.79.184-2.15 2 3 1-7z" class="L"/><path d="M340 138l7 1v3h4v2l-6 2v3h-2l-3-4 4-5-4-1v-1z" fill="#8d7d23"/><path d="M1370 223c1 3 1 3 1 6-7.51-.492-7.51-.492-10-3.06l-1-1.94c3.21-1.61 6.44-1.06 10-1z" class="E"/><path d="M1213 260h2l1 12h-5l-.125-4.31-.07-2.43c.195-2.26.195-2.26 2.2-5.26z" class="C"/><path d="M267 92l1 3 7 1v4h-3v-2l-3.19-.375c-3.27-.536-5.82-1.26-8.81-2.62v-2c2.46-1.23 4.28-1.07 7-1z" fill="#bca833"/><path d="M1307 164h5v6h-2v4l-4-1 1-9z" class="D"/><path d="M1450 162l-2 10 4 1v1h-8c1.15-8.55 1.15-8.55 2-11 2-1 2-1 4-1z" fill="#00a154"/><path d="M665 128v1l-2.34.184-3.04.254-3.02.246c-2.58.166-2.58.166-4.6 1.32l-6.12.562-3.32.254-2.55.184-1-3c8.66-1.26 17.3-1.09 26-1z" fill="#00b660"/><path d="M264 114c1.29 3.86 1.37 7.56 1.62 11.6l.379 2.4 2 1h-3l-1-5h-4c-.25-3.31-.25-3.31 0-7 2-1.94 2-1.94 4-3z" fill="#f9db3e"/><path d="M907 264h2v2l2 1-2 4 2.25-.562c2.7-.43 4.2-.289 6.75.562v2l2 1c-4.12 1.18-6.14.726-10-1h-3l.063-2.38c.124-2.61.124-2.61-1.06-4.62l1-2z" class="F"/><path d="M1199 155c2.08 3.84 3.52 7.9 5 12l.895 2.38.855 2.37.797 2.17c.517 2.37.213 3.8-.547 6.08l-2.2-5.9c-.629-1.65-1.3-3.29-1.99-4.91-.812-2.19-.812-2.19-.812-5.19h-2c-1.12-5.62-1.12-5.62 0-9z" class="H"/><path d="M1018 153l1 2c2.53.656 2.53.656 5 1v2l8-1 2 6-2-1v-2l-3.62.188c-4.11.022-6.82-1.06-10.4-3.19v-4z" class="D"/><path d="M499 190c2.12 3.84 3.41 7.91 4.75 12.1l.746 2.18c.676 2.1.676 2.1 1.5 5.76l-2 3c-4.19-6.86-5.19-15.1-5-23z" class="E"/><path d="M680 129h3c.125 2.38.125 2.38 0 5l-2 2v1h-6v-3l-1-4 6 1v-2z" fill="#00b561"/><path d="M85 215l4 2-1 5h2l2 7h-2l-1 3c-1.11-3.33-.845-5.62 0-9l-4-1v-7z" class="J"/><path d="M604 148h1c-.479 4.71-.968 8.67-3 13l-7-2c1.31-1.5 1.31-1.5 3-3h3l.938-3.44c1.06-3.56 1.06-3.56 2.06-4.56z" class="B"/><path d="M121 257h2l.812 1.88c1.14 2.42 1.14 2.42 4.19 4.12.688 2.62.688 2.62 1 5h-4l-1-3-3-2c-.188-3.12-.188-3.12 0-6z" class="P"/><path d="M80 221l2 2h3l-1 6-1.81-1c-2.24-1.21-2.24-1.21-5.19-1h-2v-4h5v-2z" class="J"/><path d="M1341 218h12v2l4 1h-16v-3z" class="N"/><path d="M582 189h4c.981 3.05.981 4.95 0 8l-5 1v-8l1-1z" class="K"/><path d="M217 65l2 2 3.88.375c3.1.315 4 .526 6.56 2.5 1.56 2.12 1.56 2.12 2.56 5.12l-4 1c-2-3-2-3-2-7l-8 1-2-4 1-1z" fill="#b5a130"/><path d="M1220 310l2 1-1 6h-2l-1 3-1-2-3-1 1-4h4l-1-2 2-1z" class="F"/><path d="M1246 298c2.3 2.3 2.76 3.85 3.69 6.94l.824 2.65c.488 2.41.488 2.41-.512 5.41l-2-4h-2v-11z" class="I"/><path d="M920 223l4 2-2 2c-.464 2.89-.464 2.89-.625 6.12l-.227 3.32-.148 2.55h-2c-1.23-3.69-.66-6.16-.059-9.94l.059-2.06-2-2h3v-2z" class="F"/><path d="M137 177c0 3 0 3-1 5-2.29.414-2.29.414-5.06.625l-2.79.227L126 183c3.65-4.75 4.99-6.16 11-6z" class="R"/><path d="M620 165l3 1-.25 2.31c-.042 2.83-.042 2.83 2.25 4.5l2 1.19h-8c-.125-6.75-.125-6.75 1-9z" fill="#00ad5a"/><path d="M478 127l4 1 1 4-4 3-4-4 3-4z" class="O"/><path d="M981 123l3.27.027 2.48.035v2l-5.19.5-2.92.281-7.89.219v-2c3.46-1.07 6.64-1.1 10.2-1.06z" class="F"/><path d="M586 182c2.38.312 2.38.312 5 1 2.15 3.23 2.2 4.28 2 8h-3l-1-5h-3v-4zm368 104c2.72.367 4.61.727 6.88 2.31 1.12 1.69 1.12 1.69.812 3.88l-.688 1.81-2-2-5-1v-5z" class="C"/><path d="M116 92l5 1-1 5c-7.43.286-7.43.286-11-2l2.94-.875c3.17-.767 3.17-.767 4.06-3.12z" fill="#d0b938"/><path d="M1526 313l2.71.105 2.73.082 2.08.105 1 3h-14c3-3 3-3 5.48-3.29z" class="C"/><path d="M1207 181c1.91 2.87 2.96 5.33 4.12 8.56l1.07 2.94c.805 2.5.805 2.5.805 4.5-3-1-3-1-4.06-3-1.23-3.93-2.36-7.92-2.94-12l1-1z" class="I"/><path d="M1312 299l4 1 2 7-4 2c-1.61-3.62-2-5.97-2-10z" class="C"/><path d="M265 282l1 2-14 1v-3c4.62-1.3 8.34-.855 13 0z" class="J"/><path d="M223 225c1 3 1 3 .004 5.26l-1.44 2.43-1.43 2.45-1.13 1.86h-2c1.33-8.35 1.33-8.35 4.12-11.1l1.88-.938z" fill="#00ac5c"/><path d="M1153 139v2h-14v-2c4.33-2.17 9.42-.873 14 0z" class="D"/><path d="M276 99l4 1v2l7 1v2c-2.75.75-2.75.75-6 1-2.89-2.18-3.85-3.55-5-7z" fill="#675c1c"/><path d="M927 229c1.71 2.97 2.25 5.08 2.19 8.5l-.02 2.28c-.165 2.18-.572 4.12-1.17 6.22h-2l-.062-7.94-.025-2.29.088-5.78 1-1z" class="D"/><path d="M1252 316c4 8 4 8 4 12h-5l1-12z" class="H"/><path d="M1055 300c2.15 2.62 3.4 4.64 4 8l-5 3-1-8h2v-3zm1 5l1 3z" fill="#006a37"/><path d="M1400 291l1 2 3-1 3 3-1 3-1-2-4 2c-2-3-2-3-1.62-5.19l.625-1.81z" class="E"/><path d="M1338 223v4l-12-1c3.6-3.6 7.16-3.09 12-3z" class="F"/><path d="M146 172l-2.5 1.31L141 175v3l-7-3c3.38-3.38 7.44-4.76 12-3z" class="O"/><path d="M308 119h6v3h5l1 3-1.81-.562c-2.35-.658-2.35-.658-5.19.562l-5-6z" fill="#6d611e"/><path d="M429 157h4c.842 3.16 1 5.73 1 9h-3c-2-6.75-2-6.75-2-9z" class="D"/><path d="M1169 129l-1 2c-2.65.594-5.29.742-8 1v-2h-12v-1c7.19-.888 13.8-1.01 21 0z" class="H"/><path d="M689 279c3 1 3 1 4 3l6 3v2l2 1c-5.21-.248-7.44-1.92-10.9-5.53C689 281 689 281 689 279z" class="I"/><path d="M1150 214c1.27 3.81.478 5.31-.812 9.06l-1.08 3.22c-1.11 2.71-1.11 2.71-3.11 4.71.931-6.16 1.79-11.6 5-17z" class="C"/><path d="M340 151l2 1 .125 4.25.07 2.39c-.212 2.57-.909 4.15-2.2 6.36h-1c-.083-4.83.047-9.24 1-14z" class="J"/><path d="M1414 296l2 3 4.86 5.28L1422 306l-1 3-3-3v-2l-3-1-2-6 1-1zm-313-130l3 1-1 2 2 1-1 3 2 1h-5c-.8-3.29-1.1-4.71 0-8z" class="H"/><path d="M451 136h15v1l-4.69 1.06-2.64.598c-2.84.36-4.92.049-7.68-.66v-2z" class="F"/><path d="M968 286c4.47-.213 7.82.409 12 2v2h-2v2h-2l-2-3c-3.05-1.21-3.05-1.21-6-2v-1z" class="E"/><path d="M940 283c1.35 4.05.621 6.79 0 11h-2v-10l2-1z" class="D"/><path d="M113 265h3l1 9c-2.44-.812-2.44-.812-5-2l-1-3 3-1-1-3z" fill="#f8de3f"/><path d="M551 291c1.56 1.81 1.56 1.81 3 4l-1 3-5 1-1-4 3-1 1-3z" class="C"/><path d="M1040 269c2.52 3.12 4.4 6.31 6 10l-1 2c-3.26-2.84-4.56-4.67-5-9v-3z"/><path d="M1050 163l1 2-2 4-6-1c1.35-4.06 2.73-5 7-5z" class="D"/><path d="M202 147c1.88.25 1.88.25 4 1 1.25 2.06 1.25 2.06 2 4h-2l-1 2-4-3 1-4z" class="C"/><path d="M1551 137l-1 3h-8v-3c3.33-1.11 5.62-.845 9 0z" class="B"/><path d="M1252 310l2 3-1 3-1-6zm-5-16l2 3-1 3-1-6z"/><path d="M1238 267l2 3-1 3-1-6zm6 18l2 3-1 2-1-5zm-11-32l2 3-1 2-1-5z" fill="#000101"/><path d="M1210 184l2 3-1 2-1-5z" fill="#000202"/></svg>